<?xml version="1.0" encoding="UTF-8"?>
<svg viewBox="0 0 257.94159 427.02261" xmlns="http://www.w3.org/2000/svg">
 <g transform="translate(-656.22 -255.69)">
  <path d="m843.18 556.77 19.254 5.4272-10.337 13.697-18.091-5.0395z" fill="#ffb800"/>
  <path d="m826.78 573.93c13.695 3.6553 27.317 7.5992 40.953 11.48 2.4366 0.99781 5.1174 1.4927 7.2563 3.1404-2.1674-1.989-2.8731-5.1367-2.2954-8.0875-13.038-4.4529-24.553-7.8046-37.898-11.147-4.0035-1.0314-9.6774-2.7729-13.774-3.3081-27.815 0.64824-9.6523 4.2073 5.7573 7.9222z"/>
  <path d="m840.3 557.09c8.7771 2.4958 17.573 4.9695 26.431 7.3677 3.497 0.97004 6.9406 1.9953 10.335 3.0713 0.31919 0.12158 2.2117 1.1492 1.2887 0.55539-1.5686-1.1036-0.35607-2.2208-2.1867-3.2844-2.829-1.1054-6.2086-1.8187-9.356-2.6286-3.5104-0.94087-7.0452-1.8514-10.598-2.7353-4.9141-1.2634-9.8575-2.4798-14.811-3.6785z"/>
  <path d="m859.84 521.12c2.6262 0.0226 4.2166 6.6692 5.2377 11.011 21.359-33.451 8.4641-18.222 4.0464 3.9938-0.80728 4.0596 7.8993-15.705 11.903-20.286 5.1841-5.9305-4.4442 17.014-6.9562 26.944-0.62965 2.489 15.052-27.75 15.099-23.386 0.0226 1.9195-12.59 26.997-10.279 28.544 0.95125 0.63684 9.133-20.572 13.125-24.94 2.4058-2.6324-6.7006 19.007-6.1798 21.833 0.49208 2.6716 10.693-13.576 10.129-12.026-2.5165 6.9149-22.19 32.9-22.193 33.175 0.59513 5.084-2.8461 7.2198-4.6691 2.7333-5.1324-9.182-7.7901-22.252-8.7456-34.092-0.3-4.5212-1.4023-9.666-0.51722-13.504z"/>
  <path d="m818.4 563.07-6.4812-7.6596c-0.20401-0.102-1.7053-5.7799 7.9861-19.27 8.8696-12.346 3.5666-6.896 12.133-12.202 8.6177-5.338 9.7333-11.539 9.7333-11.539l16.89 6.0884-12.177 13.944s7.4645 5.3037-0.19648 16.105-8.3728 24.173-18.854 22.979c-10.777-1.2275-9.0344-8.4452-9.0344-8.4452z" fill="#ea9999"/>
  <path d="m843.52 638.49c-1.8233-1.8391 0.81717-10.055 2.5542-15.409-33.807 21.038-16.2 13.653-0.57387-7.0733 2.8554-3.7874-14.385 11.349-19.768 13.484-6.9701 2.7634 12.709-15.14 20.068-24.032 1.8448-2.2289-26.181 19.297-23.751 14.593 1.069-2.069 24.036-20.192 23.294-23.447-0.30527-1.3396-17.993 15.705-23.249 17.621-3.1669 1.1541 15.41-15.712 16.641-19.098 1.1631-3.2003-15.135 7.1384-13.866 5.8687 5.6614-5.6618 34.077-19.873 34.234-20.165 2.4536-5.8537 6.0639-5.7603 4.8057 0.303-1.5954 13.378-7.115 29.207-13.13 42.542-2.3422 5.0471-4.4755 11.317-7.2602 14.813z"/>
  <path d="m788.97 602.2s-4.2954-3.9396-0.98084-5.9933 21.417 9.6155 21.417 9.6155l-2.2004 11.322z" fill="#ffb800"/>
  <path d="m766.89 611.91s0.57146-5.8003 4.2039-4.3828 1.1412 24.709 1.1412 24.709l-6.3469 3.2299z" fill="#ffb800"/>
  <path d="m733.12 492.4c-3.5381 2.5834-8.7876 3.599-8.1901 9.8802-3.352 4.9897-5.6989 10.565-8.4018 15.92-2.3276 4.864-3.5057 10.202-4.7329 15.463-0.76587 3.8878-0.87187 7.9181-1.0907 11.901-0.17352 3.6804 0.1084 7.4956-1.3357 10.908-0.10126 0.31919-1.5366 2.0436-0.29209 0.94357 2.8341-2.1421 6.1773-3.5839 9.1455-5.5424 2.4847-1.8298 2.1686-13.953 3.7215-16.654 1.3473-3.4826 6.4835-16.959 7.2803-20.602 0.9645-3.4789 3.9798-6.1594 5.1275-9.5794 1.6758-4.9796-0.35043 9.4181 1.6583 4.5772 1.0211-2.9872 2.7656-5.6721 3.7578-8.6084 0.11518-2.9468-1.8462-5.8204-4.4772-7.4059-0.48993-0.49245-1.4227-1.716-2.171-1.2008z" fill="#999"/>
  <path d="m831.73 406.99s1.1871-10.446 9.0217-7.3598 19.23 4.9857 19.705 15.907-28.727-8.5468-28.727-8.5468z" fill="#a00"/>
  <path d="m772.27 633.92c-2.1413 0.0264-4.8973 0.66345-8.4691 1.9996-11.278 6.1058-17.828 14.957-16.115 29.524-0.0151 0.0226 0.0151 0.093 0 0.11744-1.2322 2.1612 0.50604 10.683 2.9407 11.057 1.9173 0.29472 6.7659 5.6039 7.0576 5.8813 0.95136 0.90435 10.76-4.3208 11.292-5.2932 1.2896-2.3585 13.306-17.133 13.057-21.996-0.0884-1.7278-1.7645-11.651-3.1759-15.997-1.1607-3.5737-3.0182-5.3384-6.5871-5.2932zm-0.35269 6.4695c2.2583-0.24429 4.2236 0.0952 4.8227 0.94101 4.4814 6.3273-0.57296 22.757-1.4115 24.819-0.15056 0.37039-9.0357 6.7144-11.175 9.4101-1.1665 1.47-7.6189-0.4099-7.9986-0.23525-0.12685 0.0583-2.1267-1.2565-3.4904-3.4106-1.0452-13.961 6.4572-22.695 12.548-29.29 1.9012-1.1965 4.4464-1.9907 6.7047-2.2349z" fill="#b9b9b9"/>
  <path d="m679.02 645.18c-3.0914-16.46-0.48481-29.186 11.579-35.717l1.3737 6.6724c-6.5906 6.7488-12.806 13.747-8.6348 27.671z" fill="#b9b9b9"/>
  <path d="m662.36 643.58c-3.3013-3.9067-3.6069 5.0652-5.0888 7.7159-0.77175 3.1097 0.4323 6.5763 3.7729 8.5528 2.7323 1.6238 6.2226 2.2605 9.6149 2.3497 4.1642-0.0421 8.3307-0.22998 12.472 0.24354 4.0719 0.62261 9.6709-3.5163 13.257-4.8181 3.3811-1.5279 5.3989 0.28795 9.3222 0.15733 2.0529-0.45891 4.6701-0.46211 5.5985-2.2557 1.7503-2.8612 4.0232-5.4554 6.0298-8.2021 1.734-2.8586 3.6034-5.7575 4.4277-8.8604 0.17992-0.75891 0.34629-1.5329 0.13061-2.2989-2.183 1.1331-4.0085-2.1076-6.2071-0.93988-3.6045 0.82941-7.3404 1.8279-11.156 1.4125-4.1476-0.70331-8.2576-1.5265-12.334-2.4463-9.4406 14.419-24.188 9.9648-29.841 9.3895z" fill="#8a0"/>
  <path d="m718.28 636.27c-4.0078 1.3512-8.3948 2.2308-11.61 5.1712-2.8631 2.2138-5.6537 4.6268-7.7027 7.6388-2.0868 2.9728 0.25144 5.0456-1.1809 8.3629-0.74585 3.8918-3.3195 9.5241-0.0907 11.998 2.6407 2.0322 6.0139 2.8291 9.2925 2.9407 3.659 1.593 7.6507 1.5151 12.054 0.30451 3.9354 0.77919 7.6796-0.98268 11.146-2.6119 4.5129 1.2031 7.9787-0.32107 10.677-3.2211 1.9841-0.57428 4.5135-0.57831 5.4108-2.823 1.6916-3.5809 3.8883-6.8275 5.8276-10.265 1.6759-3.5775 3.4826-7.2055 4.2793-11.089 0.1739-0.94982 0.33462-1.9184 0.12647-2.8771-2.1098 1.4182-3.874-2.6377-5.999-1.1763-3.4837 1.038-7.0942 2.2877-10.782 1.7678-4.0085-0.88023-7.9807-1.9105-11.92-3.0616-3.085-0.72586-6.3523-1.737-9.5278-1.0586z" fill="#8a0"/>
  <path d="m713.2 533.51c-1.122 0.90857-4.1783 1.6337-7.7148-6.2312-3.9376-8.7569-1.9318-22.345-1.3353-22.106l7.3477-13.68c-4.6893-9.1415 7.2232-13.5 11.413-6.309 1.4033 2.4085-0.10916 8.3779-0.66074 12.868l-0.29661 7.2697c2.5621 0.13174 7.2605 4.002 11.275 6.6763 0 0 1.3353 6.8246-2.6705 3.4123s-9.6435-6.2312-9.6435-6.2312l4.3025 11.721c0.61956 6.8467-7.7267 8.57-12.017 12.611z" fill="#ea9999"/>
  <path d="m814.51 646.82c-15.423-36.037 1.2991-74.23 7.884-81.239l8.5695 5.4845s-6.5348 18.759-8.0659 35.976c-0.77615 8.7277 2.2804 18.333 2.9242 22.297 1.6166 9.9551 16.463 7.8326 32.249-0.97873 15.916-8.8838 32.788-24.567 38.021-41.526 24.296-78.738-25.985-74.587-32.221-72.327l10.626-15.425c22.102-4.1894 38.274 13.25 37.02 68.899 6.9042 28.298-36.971 68-39.077 65.128-45.912 22.929-50.667 18.488-57.93 13.711z" fill="#999"/>
  <path d="m804.23 625.91s5.4845-2.0567 6.8556 3.4278-30.165 17.482-30.165 17.482l-1.7139-6.8556z" fill="#ffb800"/>
  <path d="m853.55 390.43c-2.3838 0.58346-4.7448 1.372-6.8224 2.7054 0.94196 2.1156-1.1597 3.8013-1.5291 5.7637 0.99852-0.67475 0.0824 0.96495 0 1.2939-0.53473 1.1018 1.1744 2.9243 2.1173 1.7644 0.22659 0.18707 0.0666 1.4937 0.35269 0.58813 0.81725-0.42921 2.0102 1.1163 2.4702-0.23525 0.57473 0.0113 0.82993 1.5534 1.1763 0.94101 0.18595 1.8011 2.5192 1.5727 3.7641 2.2349-0.0226-2.0575 3.2437-1.9001 3.1759-3.9993 1.8747-3.0271 1.8686-7.4082-0.79667-9.9682-1.046-0.90348-2.5417-1.3856-3.9084-1.0887z" fill="#ffb800"/>
  <path d="m751.33 413.49c-9.6826 4.0192-16.504 10.037-23.326 17.513-9.7133 11.438-14.123 28.039-15.945 43.026l-0.78921 10.543c0.0851 4.8973 11.136 2.223 15.056-0.69997 2.0016-1.4924 2.2803 5.0433 3.0869 2.3137 2.5862-4.6428 7.5862-10.744 14.519-3.2515 0.58636 8.0102 0.21794 16.278 1.1497 24.403 0.71558 10.002-2.4946 21.784-1.4947 31.739 2.4907 7.1362 15.962 2.8667 22.329 5.4717 9.1846 0.0802 18.259 2.878 27.392 2.3397 9.9695-2.4644 19.83-6.7951 28.004-13.022 6.1566-6.963 12.792-12.919 18.373-20.212 2.2195 8.5096 12.839 6.6348 19.886 5.0123 7.6653-5.5752 8.7164-16.092 12.737-24.15 3.3109-9.1946 10.067-38.72 6.0687-48.424-4.6314-13.421-11.37-16.237-17.308-29.159-5.1845-9.1846-19.568-8.6316-28.395-10.146-24.291-2.5634-45.37 8.31-69.723 6.7968-3.8722-0.0982-7.749-0.25558-11.621-0.0941z" fill="#422774"/>
  <path d="m735.94 315.31c-6.5538-14.718 6.3344-12.425 16.365-12.632 54.473-5.1578 105.75-6.8634 107.09 45.362-0.80317 5.2859 1.0398 12.245-2.9528 14.897-16.339 10.85-12.045 30.772-20.763 40.454-11.228 12.469-27.126 17.595-45.188 18.434-23.585-2.2688-47.782-4.3083-37.61-19.236 0.4763-8.7712 3.4612-29.012 3.192-28.684-6.0772 7.4031-16.222-2.7443-4.0832-17.356 0.89291-5.3784-13.846-22.855-16.048-41.239z" fill="#ea9999"/>
  <path d="m698.91 323.64c-4.2057 1.9038-9.1406 5.266-11.197 2.871l26.987-25.839-15.791 5.742 47.372-29.284s-26.704 6.312-20.384 0.2872c18.124-17.277 75.685-24.747 83.259-15.503 4.2342 1.227 8.2853 5.5837 13.177 4.5507 5.5914-1.1809 15.267 7.3736 24.72 14.398l13.494 16.365 8.9001 17.8-8.3259 2.5839 11.57 25.251-4.6792 16.953c-5.784-10.713-12.864-17.186-14.05-25.438-2.3326-16.23-32.584-27.584-54.854-28.249-21.66-5.125-43.32-2.8635-64.98-4.28z" fill="#fd5"/>
  <path d="m690.56 627.95c-3.455-2.1821 13.266-70.84 18.193-69.608l22.324-11.988 13.535-3.5687c28.61 6.8314 54.678 6.8846 74.881-8.701l-0.59183 4.4386c-13.912 9.8094-5.603 16.064-3.0995 23.246l-18.72 17.929-19.511 7.119-14.238 27.158-5.2733 21.884c-18.177 11.885-28.35 6.9604-39.814 4.746 0.84872-2.6973 4.63-12.107 0.59747-11.12-4.7647 1.1655-18.467 12.447-28.282-1.5357z" fill="#854021"/>
  <path d="m742.08 329.81c2.9091 9.2994 0.0945 20.323 12.135 12.26 4.2758 0.52591 8.611 0.80355 12.511-2.0032 4.2393-1.78 11.916-1.7628 9.4626-9.9546l0.22396-1.5285c-3.8198 1.2812-14.297-0.51865-18.234-0.37301-7.23 0.1818-7.996 1.6419-15.225 1.8423-0.29925-0.10276-1.8277-3.6939-0.87424-0.24052z" fill="#fff"/>
  <path d="m786.5 326.72c-1.2366 0.43922-2.8454 1.0627-3.0163 2.5638-4e-3 0.84443-2.2e-4 2.0501 0.28607 2.6504 1.4271-0.0979 2.0745 1.422 2.6145 2.4807 0.28871 1.1497 1.8921 1.2777 1.759 2.4434 0.49753 1.0118 2.1011-0.23488 2.359 1.1084 1.1984 0.71197 2.5518 1.1466 3.6455 2.0359 1.5625 1.052 3.5369 1.8344 5.4165 1.1969 2.0796-0.54123 4.2129-0.81947 6.3122-1.2592 1.1316-0.31204 2.5036-0.84018 2.8282-2.0967 0.66898-1.6985 0.22659-3.7236-1.0962-4.9876-2.1049-2.1012-5.0033-3.0819-7.7429-4.0608-3.5096-1.0934-7.1736-1.6186-10.82-2.0164-0.84243-0.0418-1.7133-0.28305-2.545-0.0587z" fill="#fff"/>
  <g transform="matrix(1.4865 0 0 1.4865 87.748 -709.11)">
   <path d="m405.75976,889.50796c-.51723.94731-1.19079,1.82186-1.83432,2.7003-.9102,1.22172-1.81696,2.46416-2.40314,3.88072-.83164,1.9639-1.65417,3.95079-2.0668,6.05359-.27043,1.43575-.27571,2.91139-.20475,4.36655 .10946.89572.29121,1.96857 1.19388,2.40428 .34402.22954.71234.45634.91102.83403 .0129-.19415-.25747-.9448 0-.35621-.53223-1.53036-1.23037-3.04252-1.27643-4.69021-.0962-1.3479.34987-2.66401.82392-3.90712 .61743-1.74155 1.27592-3.48671 2.30476-5.03423 .88239-1.50843 1.95122-2.89663 2.97739-4.3066 .48775-.56397.62615-1.85706-.29599-2.00986l-.12954.0647z"/>
   <path d="m411.625,900.0625-.0937.0625c-9.08172-.6387-8.64655,5.23416-12.25,8.34375l-.0937.0625c-.27046.13498-.57917.31866-.8125.59375-.25943.30587-.41644.76545-.28125,1.25l.0625.3125 .34375.0625c1.25461.19464 2.37883-.38862 3.25-1.0625l10.65625-7.5625v-.0312h.0312c.37636-.32049.45746-.7498.40625-1.1875-.0256-.21885-.10077-.46964-.3125-.65625s-.52803-.24697-.8125-.1875h-.0937z"/>
   <path d="m411.84375,901.15625c-.0233.0692-.0684.16131-.0625.15625-7.04893-.98643-8.98651,3.13849-10.625,7.5625-.55582.42994-1.20676.68548-1.84375.78125 .11826-.0981.23572-.21671.375-.28125h.0312l.0312-.0312 12.09375-8.1875z"/>
   <path d="m406.36 893.85c-1.1837 1.6872-2.44 3.3723-3.1177 5.3412-0.20574 0.98805 0.34772 2.23 1.4259 2.3806 0.85531 0.15098 1.6212-0.36338 2.317-0.78437 0.40119-0.25045 0.80751-0.49252 1.2116-0.73823-0.94705-0.16409-1.8469-0.918-1.9211-1.9195 0.0525-0.89918-0.32391-1.816-0.0245-2.6966 0.43047-0.67169 0.41187-1.479 0.55587-2.2356l-0.44712 0.65254z" stroke="#000"/>
   <path d="m406.36892,894.37066c-.77478,1.19472-1.59218,2.36516-2.25973,3.62524-.31921.68361-.30158,1.58426.24168,2.15097 .57906.62837 1.78373.69219 2.23557-.12084 .38794-.83623-.40609-1.64486-.35823-2.51396-.16374-.93077-.12654-1.88125.24034-2.75424 .0253-.063.0469-.86163-.0996-.38717z" stroke="#000"/>
   <path d="m417.03921,898.72095-.0121.14501c-.0194.0377.0818-.32035.0121-.14501zm-19.47962,12.04787c-.0575.3734.18887-.57997.005-.0115l-.005.0115z" stroke="#000"/>
   <path d="m394.78125,909.375c-.0331.0204-.0338.0408-.0625.0625-.0304.0295-.0361.0634-.0625.0937-.18069.17505-.32329.35558-.40625.53125-.10778.22823-.20115.46179-.25.53125l-.0312.0312v.0625c-.37182.91697-1.05736,1.85042-1.3125,3.03125v.0312 .0312c.001-.012-.0433.21382-.0625.34375-.003.0181.002.0524 0,.0625s.001.0499 0,.0625 0,.0621 0,.0625-1e-005,.0311 0,.0312-1e-005,.0937 0,.0937l.5-.125 .375.3125 .0625-.0937c3e-005-5e-005-3e-005-.0312 0-.0312s.0287-.053.0312-.0625c.005-.0189-.001-.0242 0-.0312s.0285-.0478.0312-.0625 0-.0317 0-.0312c.005-.0268-.008-.0492 0-.0937 .002-.009-.002-.0225 0-.0312 .18779-.97723.80685-1.86946 1.28125-2.9375 .004-.01-.004-.0217 0-.0312 .12272-.22495.22209-.45649.3125-.65625 .094-.20758.19108-.37942.21875-.40625l-.625-.78125z"/>
   <path d="m405.40355,886.30204c-1.75943,1.32086-3.34118,2.85788-4.95903,4.34376-1.0673.95675-1.86678,2.18256-2.35957,3.52534-.94809,2.36685-1.72805,4.81038-2.22764,7.31199-.18523,1.20741-.28519,2.44008-.20233,3.65846 .0502,1.04787.60653,1.96336.97273,2.92192 .26777.4949.45609,1.26986.80958,1.58677 .37859-.92525-.44479-1.96567-.5029-2.94122-.0694-1.12385.15836-2.25221.27699-3.37254 .33353-2.48984.82366-4.98029 1.72724-7.33094 .69132-1.57209 1.35807-3.1774 2.35227-4.58701 .90651-1.16466 1.95738-2.22402 3.10448-3.14909 .68646-.309 2.04308-1.1224 1.29962-1.96744-.0893-.0482-.2021-.0482-.29144,0zm-6.80046,23.63969c-.30484.17832-.64912.30126-.90673.55052 .36087-.18515.75977-.31053 1.06864-.5829l-.16191.0324zm.0647.51813c-.021.23371.18038-.14559 0,0zm-.1943.3886c.17942-.04.1335-.28166 0,0zm-1.68392.45337c.15064.0118.0122-.23772 0,0z"/>
   <path d="m405.90973,896.48538c-.45654.58839-.67545,1.64429.0725,2.10264 .62333-.66264.1407-1.57844.12084-2.3564l-.11078.14541-.0826.10835z" stroke="#000"/>
   <path d="m469.1895,722.70322c.68999.92016 1.48185,1.79221 2.53664,2.29397 1.19977.49309 2.55466.5175 3.8083.21862 2.15447-.71359 4.3703-1.23515 6.56775-1.80232 1.32274.0318 2.37472-.92992 3.04831-1.97924-.90346.91394-2.25116.90235-3.4429.97844-3.00627.39431-6.03791.59262-9.05718.81491-1.20359-.0883-2.49048-.34164-3.40701-1.18082-.23468-.24062-1.14559-.67957-.54688-.0534l.49297.70983z"/>
   <path transform="translate(0 308.27)" d="m440.17 462.79c0.15034-1.0137-4.4386 1.8333-5.5567 8.1336-2.5315 14.265-5.7916 16.448-5.2822 18.576-4.9914 6.6504-3.7045 22.165-3.0686 20.507 2.0409 2.7166 5.0623-15.312 6.8084-12.382 0.6739 3.9546 0.56187 7.977 0.78125 11.969 0.11908 3.2298 0.25452 6.459 0.40625 9.6875 0.19387 0.99075 0.44151 6.1081 0.86467 5.1559 0.52256-3.3724 0.32468-6.7902 0.40625-10.188-0.0943-6.1767-0.15949-12.356 0.0625-18.531-4.6277 37.847 4.7914 47.995 8.5172 32.095 1.3997-5.9736-1.2198-23.23-1.2517-27.747 0.71946 0.64832-0.99744-10.496-0.30133-13.843 4.0213-19.333-2.6711-21.51-2.386-23.433z"/>
   <path d="m466.18 726.2c-6.1732 0.45912-12.35 0.89691-18.538 1.0955 1.602 1.2142 2.6086 3.0807 4.3374 4.1481 1.579 0.59732 3.2346-0.12189 4.8479-0.13882 2.5234-0.19339 5.2094-0.37013 7.3519-1.8719 0.80635-0.52567 1.6003-1.0698 2.3986-1.6077 0.37225-0.48705 0.29098-1.4657-0.39774-1.6253z"/>
   <path d="m488.47 856.56c-6.2775 5.3377-12.545 10.687-18.844 16 2.0759-1.0592 3.8479-2.5936 5.7737-3.8876l16.195-11.581c-0.44342-0.89556-0.27541-2.0717 0.49076-2.7352 0.23383-0.37902 0.97635-0.79908 0.63424-1.296l-4.25 3.5z"/>
   <path d="m459.06 879.41c-1.0005 0.92779-1.1984 2.347-1.4062 3.625-0.7057 4.8608-1.3801 9.727-2.0991 14.585-0.34652 1.8964-0.93167 3.7578-1.073 5.6862 1.8074 10.415 3.228-20.935 2.0158 0.69723 0.20191-0.86044 0.16172-1.936 0.2747-2.8803l1.194-15.995c0.10341-1.0318 1.9087-0.97455 1.9676 0.0553 0.17881 1.5584-0.0433 3.132 0.0637 4.6947 0.10096 3.5418 0.11887 7.0865 0.3125 10.625-0.0722 0.74606-0.28047 1.8683 0.625 2.1875 0.77759-0.99998 0.52919-2.3437 0.51095-3.5168-0.20098-6.1513-0.70068-12.288-1.1984-18.421-0.12569-0.59699-0.40223-1.4979-1.1875-1.3438z"/>
   <path d="m514.375,737.90625c-.92149.67992-1.75105,1.47633-2.53125,2.3125-.85119,1.15731-1.83847,2.244-2.405,3.58113-.40247.87578-.82561,1.74168-1.25125,2.60637 .65642-.28971.97482.6377 1.59375.625 .42528-1.05842.80505-2.15038 1.41875-3.11751 .77817-1.10802 1.60769-2.1784 2.425-3.25749 .57052-.70405 1.71094-.96593 1.90625-1.9375 .18441-.65105-.64695-.95514-1.15625-.8125zm-3.90625,15.75c.071.409.19465-.28887 0,0z"/>
   <path d="m512.39 699.26c0.46837 1.3918 0.80492 2.8536 1.6622 4.0732 1.0287 2.043 2.6125 3.9649 2.7783 6.3184-0.0355 0.47011-0.71623 2.2027 0.0256 1.7986 0.39734-0.97189 2.8043 1.3144 2.9269 0.29848-0.24042-1.9215-2.9448-7.3952-4.2364-8.9739-0.89947-1.314-2.2928-2.1893-3.1412-3.5419l-0.0153 0.0272z"/>
   <path d="m516.38 703.58c0.3002 1.2263-1.3086 1.3646-2.0649 1.8291l-8.1077 3.5598c-0.66239 0.96319 0.54526 2.3386 1.5974 1.9398 2.4416-0.40462 4.733-1.4608 6.8244-2.7556 0.84324-0.52454 1.5969-1.2494 1.8332-2.2488 0.1552-0.72817 0.26207-1.7022-0.0824-2.3242z"/>
   <path d="m517.86 719.27c-2.7579 2.0513-5.0057 4.6735-7.4566 7.062-1.1081 0.2928-0.99032 2.3554 0.25065 2.2931 2.091-1.3926 3.4146-3.6074 5.3753-5.1498 1.1024-1.0657 2.1975-2.457 2.0484-4.0827l-0.0936-0.0885-0.12422-0.0342z"/>
   <path d="m482.16 674.97c-2.359 0.32202-4.7131 0.67639-7.0625 1.0625-1.4571 0.44946-2.9633 0.72144-4.4062 1.2188-0.72296 0.39883-1.2404 1.2162-1.095 2.0553 0.0815 0.86801 0.8635 1.4595 1.5283 1.9211 0.91463 0.55929 1.9615 0.85866 2.9596 1.2353 1.936 0.59815 3.8679 1.2115 5.8153 1.7717 2.11 0.57045 4.2372 1.07 6.3769 1.5159 3.8044 0.84897 7.6221 1.6344 11.448 2.3774 2.6095 0.52982 5.225 1.0495 7.7961 1.7437 0.90243 0.28094 1.6006 0.982 2.2769 1.6112 0.48865 0.53724 1.3935 1.0927 2.0497 0.51846-0.97678 0.32151-1.4431-0.95688-2.1463-1.4276-0.92596-0.93603-1.9475-1.7818-3.1052-2.4171-1.3783-0.81338-2.8712-1.471-4.4526-1.7626-5.615-1.2799-11.24-2.5136-16.861-3.7679-2.5074-0.56086-4.9838-1.2454-7.466-1.9061-0.81797-0.39822-1.8721-0.3336-2.5312-1.0312-0.64835-0.67309-0.22097-1.8073 0.60101-2.113 1.0332-0.43989 2.1677-0.58961 3.2432-0.90757 1.6333-0.4271 3.2786-0.81364 4.9058-1.2607 0.18784-0.0515 1.0471-0.56803 0.40625-0.46875l-0.18169 0.0202-0.0996 0.0111z"/>
   <path d="m470.13413,651.94772c.62948-.23106 1.29512-.58095 1.98277-.40562 .57047.0889.99034.51218 1.43449.84194 1.33945,1.04745 2.69914,2.0709 4.00518,3.15986 .49915.44384 1.00452.87981 1.56118,1.25101 .52955.29707.97863.91425 1.61432.90725 .41306-.16101.55964-.63989.93733-.85205-.66671-.0927-.97384-.76658-1.49331-1.11092-1.24389-1.02894-2.42811-2.12812-3.64635-3.18717-.47323-.4663-1.00268-.87524-1.42971-1.38752-.25246-.46391-.21913-1.06063-.61549-1.44663-.44216-.4073-1.07487-.0702-1.47766.22914-.97176.67014-1.94858,1.33283-2.93032,1.98826l.0321.019 .0255-.007z"/>
   <path d="m458.16 657.84c-1.9006 0.70512-3.9634 0.27473-5.9322 0.54554-4.1702 0.29173-8.3333 0.73717-12.443 1.517-3.1448 0.55062-6.289 1.1227-9.4258 1.7065-1.0342 0.27001-1.9144 0.90642-2.891 1.3186-0.75769 0.53588-1.6763 1.288-2.152 1.9125 1.0467 0.17576 1.8142-0.86888 2.8594-0.87988 2.0744-0.4051 4.1424-0.84119 6.2344-1.1514 4.8249-0.72456 9.637-1.5361 14.469-2.2126 1.0122-0.2198 2.044-0.12587 3.0481 0.0852 1.7553 0.3831 3.5306 0.66949 5.2856 1.0601l2.76 0.56733c-0.94324-0.39853-1.1984-1.6347-0.78125-2.5 0.31681-0.74216 0.0198-2.1702-1.0312-1.9688z"/>
   <path d="m526.05 702.7c0.51541 2.3387 1.1914 4.6384 1.685 6.9826-0.94952 0.55652-4e-3 1.5694 0.28808 2.2422 0.34309 0.79497 0.29057 2.3119 1.443 2.3316 1.0685-0.42651 0.24242-1.6918 0.0803-2.4642-0.52153-2.6151-1.0592-5.2338-1.4577-7.8686 0.12083-0.67399-0.39254-1.1696-1.0334-1.0671-0.26958-0.0489-1.2893-1.0554-1.0053-0.15655z"/>
   <path d="m496.62 679.75c0.0519 1.1346 0.16877 2.2701 0.0937 3.4062 0.04 1.1669 0.79646 2.1103 1.4198 3.0374 0.62302 0.88817 1.2069 1.8346 2.0063 2.5741 2.0948 1.5887 4.5526 2.6335 6.5766 4.3247 1.0272 0.87122 2.079 1.7167 3.0953 2.5994 1.4879 1.5052 2.7349 3.2255 3.9332 4.9645 0.91514 1.3562 1.6216 2.8355 2.3396 4.3012 1.5674 3.4219 3.0143 6.8998 4.7117 10.261 0.69102 1.3986 1.4565 2.7585 2.2611 4.0938 0.50467 0.70698 1.3764 1.3408 2.2812 1 0.96651-0.43389 0.68466-1.7536-0.0355-2.2855-0.84752-0.70964-1.593-1.5399-2.1526-2.4968-1.0814-1.7463-2.3932-3.3717-3.1452-5.303-0.92051-2.0764-1.6426-4.2338-2.3992-6.3736-0.64313-1.8327-1.0676-3.7479-1.8806-5.5171-0.39823-0.91467-0.99251-1.7194-1.667-2.4482-0.63075-0.75055-1.3665-1.4108-2.1398-2.0108-1.3089-0.94652-2.5673-1.9717-3.9854-2.7554-1.696-1.0646-3.4481-2.0512-5.0106-3.3125-1.0623-0.8332-2.0589-1.7653-2.8772-2.8434-0.81087-1.0465-1.4578-2.2092-2.2382-3.2787-0.43689-0.66384-0.82872-1.3536-1.1875-2.0625v0.125z"/>
   <path d="m434.34375,829.59375c-.0203.22553.17407-.1405 0,0zm-.5,4.59375c.0865.21994-.0152-.21887 0,0zm.90625,2.15625c.59024.69676.57523,1.70457.0652,2.44817-.66539.67225-.435,1.80439.29566,2.3344 .86922.63992 2.05179.61382 2.98867,1.14848 1.25681.6319 1.65076,2.22745 2.96297,2.7877 .94248.26018 1.96058.11355 2.93255.23173 5.52763.26238 11.06454.47404 16.5987.33077 3.9824-.1566 7.95983-.51569 11.90826-1.05165 4.31321-.62689 8.61232-1.54084 12.69482-3.08958 1.44321-.55939 2.85189-1.20875 4.20942-1.95252 .76372-.80333-.2083-2.3066-1.25-1.90625-2.30823.77302-4.42945,1.97846-6.53125,3.1875-1.90912.96364-3.72148,2.18-5.83619,2.66048-2.13686.51957-4.34781.14674-6.51133.0245-4.841-.39472-9.69326-.69242-14.50651-1.36796-5.29642-.68018-10.5763-1.53653-15.78254-2.72936-.99276-.29911-2.17214-.34511-2.80383-1.2908-.61339-.70291-1.13063-1.48456-1.6846-2.23431l.25.46875z"/>
   <path d="m444.42 655.06c13.021-3.9181 26.163-6.9004 38.498-5.8143 1.5458 4.2307 5.9146 3.5012 9.0039 4.8284 2.4613 1.268 5.0645 3.6447 4.5856 8.0521 0.0319 2.3133 1.5929 3.2456 2.392 4.7597 0.27127 1.5933-0.3542 3.6297 0.21843 5.0558-1.8083-2.787-4.7181-5.0596-4.2229-9.8513-0.16406-5.2548-4.1701-7.1137-7.7906-6.9397-3.3565-0.0818-6.3491-1.5946-8.7265-3.9842-3.9914-1.0422-8.5965 1.1064-12.816 1.1812-10.901 1.7082-22.023 4.4026-33.082 9.8431-0.9181-1.0112-2.2397 2.7671-0.72809 2.1153 4.8793-0.82207 9.8164-2.1616 14.671-2.7703 0.58847 1.7793-1.5275 3.5149-2.7308 3.8956-7.8198 3.5609-15.61 7.6392-23.404 11.599-2.4073 1.255-4.8118 2.5407-7.2116 3.8726 3.6877 0.1791 7.5709-3.3996 11.304-3.73-0.50851 3.2838-3.3547 4.6948-5.2786 6.2019-4.9652 4.1569-9.9344 8.3004-14.908 12.431 2.7679 0.0789 3.8316 3.5299 5.8065 5.1715 1.2906-0.54019 2.7239-1.8982 3.9135-1.3458-2.0522-7.5e-4 -4.0937 3.4544-6.0795 2.7112-1.1297-2.0955-2.5745-4.0114-4.6598-4.4994-0.72041-2.5438 1.734-5.7306 3.695-6.4723 3.3107-2.8051 6.676-5.4328 9.9566-8.3333-2.8205-0.32022-5.9409 1.7377-8.7917 1.6203 0.43812-3.0192 3.1158-4.1193 4.8523-5.5094 8.3352-5.5194 16.914-8.797 25.345-13.463-3.9446-0.0822-8.3001 1.8269-11.995 0.622 0.9089-3.84 4.2435-5.7572 6.7166-6.4184 3.7964-2.0931 7.6472-3.7564 11.467-4.8294z"/>
   <path d="m435.72 678.04c-2.4012 0.87485-4.5307 2.1361-6.2728 3.5205-2.6756 1.9824-5.3232 3.9844-8.185 5.8754-2.3589 1.4896-4.8528 2.8959-7.394 4.2543-1.135 0.60712-2.4496 1.1573-3.2054 1.9771-0.53654 0.66576-1.371 1.2471-2.2696 1.7697-0.98112 0.54058-1.6687 1.2244-2.4377 1.8632-0.36628 0.24813 0.72593-0.20519 0.79011-0.3713 0.55389-0.53101 1.3897-0.85876 2.2278-1.1595 2.7008-1.1622 5.2712-2.4764 7.7126-3.8826 4.8553-2.811 9.5528-5.7301 14.311-8.6067 1.7429-1.0464 3.6176-2.0302 5.1392-3.2044 0.69878-0.55431 1.428-1.2524 1.1782-1.8362-0.22412-0.31051-0.96095-0.4814-1.595-0.19946z"/>
   <path d="m521.57543,693.07279c.30217.12405.66904.25735.98376.1013 .28837-.15528.24584-.54817.20774-.82445-.0696-.48047-.14086-.96234-.29483-1.42514-.32845-1.04808-.92388-1.9887-1.59711-2.84795-.16917-.14507-.30991-.59874-.49171-.56102-.24858.26962-.65145.13684-.96669.0998-.36331-.0845-.17328.39373.0238.47846 .59805.66962 1.04561,1.45607 1.4352,2.26043 .26494.58655.52302,1.17781.77039,1.77115 .0503.31541-.31165.67335-.0706.94739z"/>
   <path d="m438,678.65625c2.76836.14674 5.5325.35657 8.3125.53125 8.74183.55344 17.47963,1.28273 26.21875,1.96875 1.10313.11451 2.12911.0475 2.84375.53125 .21801.20193.29501.51095.25.84375-.0432.31971-.23748.6067-.46875.78125-1.01615.45612-2.06216.85439-3.09375,1.28125 .40229-.51091.4239-1.19445.1875-1.71875-.25826-.57279-.75495-1.04601-1.4375-1.125h-.0312c-4.84578-.21089-9.71526-.41495-14.5625-.59375h-.0312c-2.80786-.153-5.6156.007-8.375.0312-2.41355.0499-4.81319.1661-7.21875.3125-.97923.0426-2.02825.13357-3,.625h-.0312c-1.01779.57105-1.52829,1.72471-1.59375,2.78125v.0312l.0311.0626c.13008,1.12715.42301,2.17589.71875,3.21875v.0312c1.30328,3.63712 2.69381,7.24187 4.0625,10.84375 .50014,1.43653 1.06017,2.82238 1.625,4.21875v.0312c.82328,1.9759 1.52277,3.99732 2.40625,6v.0312c.43578.92558.83527,1.9623 1.53125,2.875 .71533.93224 1.96369,1.5243 3.1875,1.25 1.28903-.3392 2.4123-1.01845 3.5-1.5625h.0312c1.48014-.88153 3.02668-1.72754 4.5-2.6875 .98107-.68149 2.26219-1.32047 2.96875-2.625v-.0312c.57025-1.16575.53801-2.40508.71875-3.4375 .0645-.45332.18789-.99234.375-1.375s.37413-.58095.75-.625c.26714-.031.44783.0714.625.3125s.28063.60676.25.875v.0312 .0312c-.005.72304-.40274,1.48691-.59375,2.4375-.005.0258-.0264.0364-.0312.0625-.2993.86575-.47949,1.70295-.875,2.375l-.0312.0312c-.48009.68481-.98403,1.33061-1.59375,1.84375-2.08082,1.73831-4.31481,3.29791-6.5,4.96875-2.74073,2.05304-5.49752,4.115-8.25,6.15625-.007.005-.0245-.005-.0312,0v.0312c-.81744.58149-1.59499,1.34911-1.96875,2.375-.36497,1.02657-.40203,2.2441.15625,3.28125l.0312.0312c.58096,1.14224 1.87222,1.53384 2.9375,1.5625 .59338.018 1.13017-.0941 1.625-.125s.9066.0193 1.28125.21875c.71634.35906 1.07103,1.31407 1.125,2.21875 .00013.0111-.00016.0201 0,.0312 .0167,1.16697.19406,2.26543.0625,3.28125v.0312 .0312c-.0528,1.78982-.21329,3.56919-.34375,5.375h.0312c-.21802,1.8683-.43419,3.7366-.65625,5.59375v.0312c-.11283,1.18309-.38307,2.38873-.5,3.65625-.002.0213.002.0412 0,.0625-.19266,1.25906-.15792,2.5346-.125,3.75 .0205,1.09721.20178,2.40604 1.21875,3.28125v.0312c.80561.78349 1.85308.95045 2.6875,1.15625h.0312 .0312c1.45665.13759 2.9217.29942 4.375.46875h.0625l6.375,1.46875h.0312 .0312c2.77548.37822 5.53792.74314 8.3125,1.125 2.21271.27024 4.4695.77065 6.8125.75l.03145.0006c1.69454-.10229 3.38545-.36344 5.03125-.71875 1.87648-.48427 3.80375-.97703 5.625-1.8125 1.98151-.83326 3.73842-2.05049 5.40625-3.3125 1.12543-.85896 2.34503-1.67255 3.40625-2.75 1.2775-1.32231 2.53598-2.69286 3.65625-4.1875h.0312c.005-.006-.005-.0249 0-.0312 .69739-.85152 1.23667-1.79788 1.6875-2.75 .004-.008-.004-.0233 0-.0312 .68677-1.31322 1.35443-2.64102 1.96875-4 .67742-1.56776 1.32345-3.1915 1.8125-4.84375 .003-.009-.003-.0219 0-.0312 1.11345-3.65712 2.82105-7.70355 3.875-11.46875 .0913-.32363.54879-.9301.90625-1.5625 .17873-.3162.31199-.65591.375-1.03125s.0218-.80593-.25-1.15625l-.125-.15625-.1875-.0312c-.70242-.11262-1.12296-.30382-1.25-.40625s-.0684-.021-.0312-.125 .18927-.33566.4375-.5625 .57005-.44288.875-.65625l.15625-.0937 .0312-.15625c.20598-.6259.0537-1.14484-.0312-1.40625s-.13725-.24724.0625-.59375l.0312-.0937 .0312-.0937c-.006.0421.0425-.19537.0625-.34375 .005-.0371-.002-.078 0-.125 .001-.0235.006-.0409 0-.0937-.003-.0264-.009-.0629-.0312-.125-.0111-.031-.0621-.12446-.0625-.125l-.1875-.15625-.3125-.0312-.1875.0625-.0312.0312c-.10283-.015-.19569-.0922-.28125-.0937 .15349-.12611.26578-.19595.3125-.21875 .13058.0277.25258.0879.375.0625 .24689-.0512.44924-.18829.59375-.34375 .0611-.0658.0138-.17643.0625-.25 .0558.16546.0706.29537.21875.46875l.28125.34375 .34375-.21875c.58714-.3409 1.13224-.49576 1.6875-.65625-.0898.28069-.19844.5372-.25.84375-.20409,1.00554.05,1.89417.34375,2.75-.24025-.10061-.46759-.26637-.78125-.1875l-.15625.0625-.0937.0937c-.47562.52099-.51826,1.16341-.5,1.6875 .0178.51161.0755.96299 0,1.28125-.002.008.002.0236 0,.0312-1.31555,4.32334-2.67542,8.64535-4,12.96875-.64617,1.9316-1.34135,3.83416-2.0625,5.75-.55219,1.54798-1.21785,3.06529-1.875,4.59375-.004.009.004.0223 0,.0312-.52785,1.04629-1.25071,2.04433-1.9375,3.0625-.005.007.005.0238 0,.0312-.90554,1.33001-1.86247,2.62784-2.875,3.875h-.0312c-.61335.79345-1.37503,1.49588-2.1875,2.15625-1.36083,1.12051-2.67922,2.28038-4.0625,3.3125-1.05031.85716-2.26632,1.49574-3.53125,2.09375-1.08577.49025-2.1995.96426-3.3125,1.375-1.62415.63102-3.32758,1.11896-5.03125,1.625h-.0312c-1.07109.3993-2.29706.4319-3.5625.625-1.09458.18969-2.23568.13986-3.40625.0625h-.0312c-1.37431-.036-2.75508-.2697-4.125-.59375-1.24689-.2401-2.52646-.56895-3.84375-.75h-.0312c-1.54537-.2385-3.11347-.41797-4.6875-.4375h-.0312c-.97377.0431-1.98297-.0435-2.96875-.1875h-.0312c-1.42679-.30088-2.80594-.94578-4.28125-1.46875-.97279-.32385-1.98546-.6789-3.0625-.84375-1.05766-.11007-2.1351-.17924-3.1875-.21875h-.0312c-1.0962-.11274-2.1063-.0238-2.84375-.46875-.75617-.43909-1.21012-1.36614-1.28125-2.28125-.15663-1.20716.007-2.46843.25-3.71875 1.10348-5.10037 2.20135-10.2006 3.375-15.28125 .19914-.9059.55257-1.96356.3125-3.09375-.23933-1.07481-1.15014-1.7029-2-2.03125h-.0312l-.0312-.0312c-1.13157-.27788-2.26371-.42598-3.3125-.71875-.82963-.22233-1.60842-.43005-2.15625-.90625v-.0312c-.65897-.51272-1.01472-1.41573-.96875-2.28125 .0783-1.31285.42554-2.61764.9375-3.84375 .005-.008-.005-.0237 0-.0312l.0312-.0625c.82587-1.30563 1.64835-2.64124 2.375-4.03125h.0312v-.0312c.49213-1.25212.0897-2.51188-.15625-3.53125l-.0312-.0312c-1.66985-4.77082-3.33907-9.54039-5-14.3125-1.01688-2.96068-2.09214-5.8856-3.0625-8.84375-.34303-1.19302-.70979-2.36086-.96875-3.53125-.27529-1.0443-.33744-2.18771-.40625-3.34375-.00047-.0109.00049-.0204 0-.0312-.0505-1.10971-.19743-2.18715-.125-3.1875 .0432-.76219.27044-1.51441.71875-2.0625 .4922-.60698 1.29463-.96662 2.125-1.34375 .17667-.015.33177-.0368.5-.0312z"/>
   <path d="m510.90625,715.1875-.0937.21875h-.0312l-.0625-.0312c.0517-.0183.11469-.122.1875-.1875z"/>
   <path d="m510.53 715.41v0.15625h-0.0312l0.0312-0.15625z"/>
   <path d="m462.625,699.8125c.21073.15952.0459-.21784 0,0z"/>
   <path d="m518.04 711.92c-0.62091 2.5001-0.33648 5.7867-0.68555 8.3387 1.4478 4.4778 1.5151-5.7986 2.3341-9.7458-0.44117 1.0829-1.2074 0.32417-1.6486 1.4071z"/>
   <path d="m495.72 653.66c-1.0922 0.5016-1.9995 1.5557-3.2812 1.5312-0.43937-0.15018-1.9505-0.18201-1.1562 0.5625 0.4514 0.83633 1.4335 1.482 2.4062 1.2188 1.0416-0.28396 2.0275-1.0192 3.1562-0.75 1.4468 0.37331 2.2813 1.7087 3.0421 2.883 1.2284 1.7969 2.4603 3.611 4.0211 5.1416 1.5503 1.6371 3.0796 3.3036 4.4609 5.0861 0.62428 0.8511 1.1819 1.7485 1.6946 2.6706-0.0866 0.52934-0.23068 1.8073 0.65625 1.0938 0.8323-0.50074 1.0477-1.7145 0.5-2.5-1.1982-2.519-3.2526-4.4697-5.0159-6.5863-2.7242-3.2986-5.513-6.5443-8.2653-9.82-0.65214-0.40612-1.4414-0.74363-2.2188-0.53125z"/>
   <path d="m504.11 660.9c-0.24071 0.59592-0.53973 1.1686-0.73546 1.7818 0.85872-0.85816 1.8661 0.32894 2.5831 0.81222 3.7968 2.614 7.0329 5.9249 10.329 9.1223 0.82702 0.64638 1.3771 1.8024 2.487 1.9792 0.6955 0.1162 1.5526-0.15028 2.0789-0.47307-0.7703-0.39578-1.5336-0.8467-2.1027-1.528-1.4883-1.577-3.0851-3.049-4.6305-4.5704-2.1628-2.0682-4.4031-4.0594-6.8259-5.8207-0.87142-0.59814-1.6324-1.423-2.672-1.7255-0.25097 4e-3 -0.45085 0.17649-0.51121 0.42204z"/>
   <path d="m527.03151,705.00309c-.33025-1.37997-.83136-2.71245-1.25669-4.06512-.4394-1.27308-.92219-2.53023-1.46072-3.76479-.65399-1.48863-1.4045-2.93393-2.2001-4.35134-.65799-1.03555-1.30734-2.08649-2.10347-3.02266-.28539-.38978-1.13278-.38225-1.16007.19948-.0328.70249.42465,1.29096.78258,1.85353 .80853,1.17051 1.9506,2.0982 2.59966,3.38018 .27584.60997.3786,1.27778.45614,1.93722 .0623.53717.5699.81296.75872,1.28495 .46463,1.12603.94973,2.24408 1.34023,3.39908 .39305,1.07957.72313,2.18069 1.05378,3.2806 .22467.33206.0376.70425-.12029,1.01592 .2539-.43857.71998-.664 1.15083-.89032 .0655-.0775 2.40188,2.32189 2.38133,2.20076z"/>
   <path d="m522.72 683.26c-2.4204-6.1614-2.9264-8.8721-1.1246-6.0238s3.7821 7.8894 4.4007 11.202-0.85567 0.9827-3.276-5.1787z"/>
   <path d="m532.09 787.47c-0.92648 2.1075-0.75396 4.4664-0.61426 6.7041l0.083 1.0459c0.35539-2.5184 0.87344-5.037 0.75-7.5938l-0.0312-0.1875zm-0.9375 9.75c-0.45451 2.604-0.79616 5.236-1.5312 7.7812-0.78264 2.4872-2.0182 4.7897-3.1562 7.125-1.3977 2.4008-3.0615 4.6275-4.6875 6.875-1.4695 2.1945-2.8502 4.4566-4.5312 6.5-1.8888 1.9447-3.9125 3.7631-5.6562 5.8438-0.90195 1.147-1.6888 2.3689-2.375 3.6562-0.14017 1.6897 1.027 3.5984 2.9688 5.4688 0.62702-2.1868 0.62953-4.4893 1.0312-6.7188 0.37247-2.6794 3.1308-3.8954 4.6875-5.8125 2.2856-2.6384 4.5984-5.2527 6.9375-7.8438 1.8369-2.1123 3.4932-4.4181 4.5746-7.0142 1.0814-2.4454 1.8716-5.0067 2.594-7.5775 0.67056-2.4145 1.397-4.8482 1.8001-7.3145-0.20026-0.22759-0.74381-0.0163-0.71875-0.4375-0.75975-0.65939-1.1198-1.6121-1.5312-2.5l-0.40625 1.9688z"/>
   <path d="m476.46 697.24c0.54437 1.7813 3.8598 0.4902 4.1568 2.6575-0.064 1.5692 1.1379 3.8627-0.63426 4.8943-3.1887 0.33887-5.8824-2.2452-9.0872-2.1993-1.2844 0.0649-2.7239-1.763-0.72211-1.9545 2.3943-0.43949 5.0633-1.0923 6.215-3.4916l0.09-0.14634-0.0182 0.23994z"/>
   <path d="m467.6875,699.29895c-.44515.7548-.43167,1.83589.18395,2.51163 .59588.71763 1.38902,1.23359 2.12348,1.79713 .81646.56587 1.70015,1.02925 2.63007,1.37874 1.39995.61566 2.82013,1.18808 4.1875,1.875 .45692.17756.90521.37463 1.34375.59375 .92551-.34926 1.92999-.40754 2.90625-.5 1.17595-.13406 2.31734-.45706 3.46875-.71875 .99793-.30041 1.99833-1.275 1.67065-2.39512-.097-.76264-1.02425-1.5743-1.7644-1.13613-.51454.59141.2118,1.76708-.73593,2.05781-.99614.41675-2.09964.40316-3.16064.4568-.97745.0272-1.96762-.0899-2.90323-.38062-1.61526-.47635-3.21075-1.01795-4.77341-1.64633-.90235-.40925-1.85257-.73936-2.67679-1.30016-.94531-.60206-1.23566-1.77053-2.04383-2.49538-.0977-.15018-.30671-.15594-.45617-.0984z"/>
   <path d="m525.04 709.98c1.2767 0.43003 1.1004 1.9283 0.67845 2.9103-0.62564 2.5573-0.80667 5.1945-1.0351 7.8096 1.0544-3.1272 1.9951-6.3768 3.9451-9.0894 0.97198-0.57277-0.19363-1.748-0.99863-1.6071-0.84006 0.27066-1.7552-0.27657-2.5898-0.0234z"/>
   <path d="m429.40625,811.84375c-.0105-.2509-.14943-.47456-.3125-.65625l.3125.65625z"/>
   <path d="m412.27366,816.52123c-.001.47066-.5777.31124-.84375.1875-1.04651.3504-2.08334.73562-3.15625,1l-3.15625,1.09375c-.9023.44884-1.56392,1.30558-1.85326,2.26178-.16593.0845-.0634.64656.06.23096 .48199-.95136 1.36044-1.68102 2.40667-1.91798 1.62948-.55503 3.26145-1.10445 4.91783-1.57476 .56175-.10991 1.14951-.13476 1.6875.0937 .0396-.4874.13043-1.00006-.0625-1.46875v.0937z"/>
   <path d="m420.125,820.5625c.21897.36397-.15079-.51356 0,0z"/>
   <path d="m427.125,821.1875c-.29856.87282 1.7146.44787.45527.0571-.13952-.0613-.30366-.13024-.45527-.0571z"/>
   <path d="m435.59375,821.9375c-.0468.29124.11265-.13855 0,0z"/>
   <path d="m529.53 733.8c-5.4124 0.32368-18.549 3.1093-15.202 5.9134 0.79509 1.6358 4.2227-1.5471 3.6274 3.0465 0.94663 0.99651 2.8293 1.2595 3.4119-0.41369-7.5164 11.3 10.628 1.1396 12.441-2.4465s1.1337-6.4234-4.2787-6.0998z"/>
   <path d="m435.625,822.65625c.0594.31095.0899-.2624 0,0z"/>
   <path d="m458.39 870.41c-2.9857 6.6398 2.8911 5.7381-3.3612 15.155 31.482-26.166 18.272-17.812 18.692-19.005-1.4941-1.681-5.7709-0.98725-8.4151-1.6868-4.997 3.9996-4.4034 2.2748-6.9131 5.5347z"/>
   <path d="m452.92 740.12c-1.0822 0.0698-2.2319 1.7889-1.729 2.6512 1.4759-0.92662 6.7374 8.6423 8.3904 9.0831 5.1023 1.0138 12.059-1.5711 17.096-0.19189 1.1149-0.47039 13.705-6.3236 13.274-8.1036-0.47247-1.2909-16.561-0.15021-17.359-1.3256-1.4317-0.64812-3.1401-0.56964-4.6876-0.88374-4.8284-0.55568-9.6803-0.96754-14.524-1.3064l-0.27703 0.0462z"/>
   <path d="m502.28 749.84c-0.85101 0.0759-3.3111 0.65669-2.6335 1.5016 0.73409 0.68232 3.1827 1.0792 4.0807 0.88879 3.5249 0.32556 2.999 0.48027 4.4494 0.92656 1.8185 0.36768 3.4684 0.23961 4.8946 1.4041 2.405 1.8143 4.7632 3.6944 6.984 5.7318 1.8615 1.7059 3.931 3.2647 5.2838 5.4377 0.95305 1.3967 1.5512 2.9953 2.1579 4.5631 1.2262 3.3818 2.0063 6.9022 2.7206 10.421 0.31632 2.9806 0.47048 5.9762 0.55705 8.9715 0.0796 3.6194 0.31055 7.2421 0.13502 10.862-0.19609 2.434-0.14734 4.8883-0.5458 7.304-0.24155 1.9144-1.1902 3.6363-1.6775 5.4876 0.5768-0.16503 0.0506 0.82588 0.3125 1.125 3e-3 0.40029 0.32326 0.42135 0.375 0 0.54413-0.84811 1.0562-1.7412 1.7665-2.4595 0.64048-0.57197 1.6748-0.72894 1.9161-1.6858 0.40817-0.8354-0.26325-1.6115-0.24504-2.4437-6e-3 -0.93762 0.47225-1.7857 0.59397-2.7012 0.33715-1.7546 0.32749-3.552 0.44153-5.33 0.0754-1.9857-0.0923-3.9692-0.12684-5.9542-0.11518-3.0368-0.2206-6.0753-0.49721-9.1028-0.22928-3.2296-0.53269-6.4649-1.2295-9.6319-0.55946-2.5461-1.1321-5.1089-2.1741-7.5097-1.0353-2.4682-2.4156-4.8149-4.243-6.7823-1.0304-1.1878-2.1263-2.3259-3.3168-3.3531-2.1288-1.6221-4.3751-3.1232-6.8358-4.1956-1.478-0.72311-3.0005-1.357-4.5865-1.8022-2.1203-0.66356-4.2914-1.1489-6.4632-1.6106-0.69458-0.0635-1.4006-0.22092-2.0938-0.0625z"/>
   <path d="m486.79 753.41c-0.71133 0.0135-0.8109 0.0777 0 0z"/>
   <path d="m481.82 750.97c-0.16556-0.38178-0.17934-0.23979 0 0z"/>
   <path d="m462.53125,751.9375c.34567.23868.30593-.14078 0,0z"/>
   <path d="m467.9375,751.9375c-.2491.24218.31037-.11472 0,0z"/>
   <path d="m454.46 851.59c-3.4947 1.2227-7.0997 2.3145-10.235 4.3366-2.2333 1.6037-4.1999 3.5619-6.4928 5.0852-1.27 0.75953-2.8177 0.38231-4.2055 0.69412-0.48748-0.0456-1.7313 0.57503-1.5621 0.56019 1.1664-0.62094 2.5487-0.53847 3.828-0.69088 1.5336 0.018 2.9049-0.73918 4.2151-1.4428 1.9065-0.89992 3.9961-1.5056 5.6228-2.9033 1.3303-1.0461 2.6674-2.1196 4.2475-2.7678 1.4141-0.59146 2.8577-1.1191 4.2741-1.7094 0.91356 0.60222 1.5793-1.7365 0.30808-1.1621z"/>
   <path d="m428.51 909.04c-1.7267 2.618-2.7784 5.9952-5.9792 7.2135-0.79146-4e-3 -2.2083 2.6661-0.53558 2.7513 1.8767-1.449 3.222-0.32182 5.0471-1.8787 1.2085-1.3425 2.2421-6.5681 3.5134-7.794 1.1057 0.58841-1.3178-2.1012-1.4279-0.83778l-0.61792 0.54572z"/>
   <path d="m445.125,867.46875-.0625-.0312 .0625.0312z"/>
   <path d="m449.9 909.26c-1.3894-9.0409 2.915-18.036 5.2818-21.637 7.3493-11.182 17.473-18.012 16.091-15.021-1.2141 2.6264-7.8931 8.9879-13.962 14.674-2.8928 2.7105 3.0125 17.464-3.0711 18.165-2.4597 0.28355-3.819 4.4359-4.3392 3.8186z"/>
   <path d="m513.19 811.1c-15.602 1.8302-27.628 8.9859-43.005 14.949-0.72252 1.6928-2.0484-1.5497-1.974-0.91217 0.98712 1.0195 0.0887 4.4421 1.8807 4.1286-5.4406 7.193 11.586 3.1405 23.871-5.0958 8.3149-3.1706 8.4596-8.2243 16.85-10.073-4.6151 3.5263 3.8636-1.148 2.7346-2.8846l-0.18075-0.0926-0.1767-0.0201z" stroke="#000"/>
   <path d="m515.43 673.1c1.466-0.10744 2.686 0.8495 3.875 1.5625 2.2506 1.8855 3.8414 4.3861 5.6662 6.6543 0.12959 0.25064 1.1268 1.0028 0.44203 0.51149-1.1065-0.888-2.1436-1.9143-3.4927-2.4306-1.2212-0.5685-2.1876-1.5483-3.0634-2.5457-0.84288-0.79938-1.7458-1.5407-2.771-2.0958-0.91383 0.17219-2.12-1.4118-0.8125-1.6875l0.15625 0.0312z"/>
   <path d="m450.86 697.3c-0.54434 1.7813-3.8598 0.49021-4.1568 2.6575 0.064 1.5692-1.1379 3.8627 0.63426 4.8943 3.1887 0.33885 5.8824-2.2452 9.0872-2.1994 1.2845 0.0649 2.7239-1.763 0.72211-1.9545-2.3943-0.43949-5.0633-1.0923-6.215-3.4916l-0.0899-0.14636 0.0182 0.23995z"/>
   <path d="m466.98 654.67c-2.1995-0.28151-4.4145-0.39255-6.6259-0.5358 0.11449 1.0342 1.0161 1.778 1.9453 2.108 2.0091 0.44228 4.1638-0.43467 6.0916 0.46135 1.6545 0.81199 3.0841 1.9864 4.548 3.0894 1.4034 1.0681 2.6391 2.3318 3.7828 3.6684 0.76505 0.7364 1.8931 0.78184 2.8903 0.68038 0.62044-0.14865 1.8466 0.1634 2.0932-0.26956-0.38369-0.93281-1.6116 0.0335-2.3252-0.32584-1.1591-0.32293-1.5176-1.618-2.3747-2.3305-1.9266-1.9148-4.0746-3.5987-6.3573-5.0659-1.154-0.61233-2.2774-1.4248-3.632-1.4744l-0.036-5e-3z"/>
   <path d="m463.41 699.75c-1.0928 0.28599-1.5364 1.4381-1.9457 2.3743-0.57693 1.1392-1.9401 1.4343-3.0015 1.9524-2.1281 0.93822-4.2633 1.9494-6.5741 2.3419-1.9693 0.49291-3.9535 0.95573-5.9787 1.144-1.0684 0.26075-1.733 1.4413-1.5625 2.5-0.0314 0.74148-5e-3 1.886 0.90625 2.0625-0.0639-0.96275-0.30744-2.4074 0.90625-2.75 1.2182-0.42899 2.5557-0.28559 3.7725-0.7258 3.1742-0.66505 6.2729-1.6956 9.2214-3.0439 1.4268-0.7225 2.9841-1.3616 4.0511-2.5969 0.5524-0.61427 0.76585-1.4341 0.57998-2.2272-0.0807-0.29085 0.13514-1.1177-0.375-1.0312z"/>
   <path d="m454.28 742.84c-0.90645 0.0391-1.8694 1.0033-1.4482 1.4869 1.2362-0.51968 5.6431 4.8469 7.0276 5.0941 4.2736 0.56859 10.1-0.88112 14.319-0.10761 0.9338-0.26382 11.479-3.5465 11.118-4.5447-0.39574-0.72395-13.871-0.0842-14.539-0.74342-1.1992-0.36349-2.6301-0.31948-3.9263-0.49563-4.0442-0.31164-8.108-0.54263-12.165-0.73267l-0.23202 0.0259z"/>
   <path d="m505.13 775.86c-6.2692-3.7102-6.8091-2.669-5.9994 5.8498 0.50273 5.2888 0.42676 16.757 3.1563 21.759-1.4882 2.9447-3.9807 5.1259-5.2266 8.2367 0.0821 3.5015 3.9474 5.91 6.759 4.4514 2.9977-1.1571 8.09-0.91394 10.018-3.9792 2.7989-4.5968 1.407-11.396 1.7374-16.744 0.33565-3.7983-2.0997-3.5134-2.277-7.3202 0.37 1.2149-5.6687-15.08-8.1675-12.254z"/>
   <path d="m513.97 811.2c-8.9343 7.0049-12.071 17.354-23.08 23.539 0.0544 1.201-1.793-0.14263-1.5497 0.18738 0.94771 0.22112 1.4195 2.4507 2.4761 1.6428-1.7405 3.5798-4.4358-0.57787 9.2041-5.3553 2.2401-0.78462 3.3475-3.8564 4.5893-5.9212 4.3765-4.7077 2.9196-7.5826 7.7503-11.578-1.8873 3.6 2.1334-2.0057 0.87439-2.5774l-0.14467 0.0121-0.11983 0.0512z"/>
   <path d="m527.85 820.39h0.0312c2.3894-0.18579 6.224 0.68004 9.625 2.1562 3.4129 1.4814 6.361 3.6187 7.1562 5.4375 1.9784 4.6499 3.9853 9.3272 5.0625 14.188 2e-3 0.01-2e-3 0.0215 0 0.0312 5e-3 5.3585-1.031 10.756-1.4062 16.25v0.0937c0.0616 0.75501-0.13056 1.0827-0.28125 1.2188s-0.35077 0.17579-0.59375 0.0937-0.47858-0.28439-0.59375-0.59375-0.1407-0.74849 0.1875-1.375l0.0937-0.1875v-0.1875c-0.25393-5.9196-0.53867-11.86-1.0624-17.781v-0.0312c-0.39643-2.4481-0.73375-5.3366-1.6562-7.9375s-2.4917-4.9821-5.25-6.0938c-0.7605-0.70148-1.7998-1.1823-3.0312-1.5312-1.3527-0.38333-2.8934-0.62618-4.4688-0.75-2.4959-0.19617-4.8186-0.0513-6.625 0.21875 0.27105-0.53346 0.52979-1.0782 0.84375-1.5625 0.54025-0.83337 1.1445-1.438 1.9688-1.6562z"/>
   <path d="m498.31 864.81c-1.8545 1.3292-1.5309 4.7397-2.1923 7.1025-0.99312 5.8893-2.2412 11.72-3.207 17.598 1.611 3.6733 2.4875-2.653 2.6946-4.6277 0.98225-6.0204 1.5788-12.186 2.7356-18.135 0.27345-0.49 0.86626-2.0985-0.031-1.9382z"/>
   <path d="m545.50339,867.94767c.13408.0793.30786.1427.34375.3125 .053.25054-.0144.68012-.15625,1.15625-.27436.92098-.81357,1.92576-1.03125,2.71875-2.8993,5.54365-6.45197,10.76632-10.75,15.125-7.78663,6.9566-15.56093,14.15233-24.78125,18.625l-.0625.0312-.0312.0312c-1.25035.90363-2.52574,1.01412-3.9375.84375s-2.9222-.65483-4.4375-.90625l-.0625-.0312-.0625.0312c-1.04781.13232-1.75069-.0579-2.28125-.4375s-.91406-.98234-1.1875-1.75c-.54688-1.53533-.62215-3.6793-.75-5.4375v-.125l-.0625-.0937c-.76997-1.27211-.21172-2.26029.375-2.59375 .29336-.16673.52712-.15585.75,0s.48012.56058.53125,1.4375l.0312.0625v.0625c.46372,1.32405.81319,3.38267 1.5625,5.0625 .37466.83992.84269,1.62218 1.5625,2.125s1.67528.67794 2.78125.4375c4.79291-1.00622 9.20411-3.31905 13.46875-5.59375h.0312l.0312-.0312c6.29413-4.11999 12.06357-9.14273 17.03125-15l.0312-.0312c.90506-1.25422 2.37944-2.49675 3.53125-3.9375 1.10893-1.38711 1.86913-3.06827 1.375-5.125 .31865-1.62503 1.30533-2.80367 2.5625-3.90625 1.14909-1.0078 2.46749-1.95232 3.59375-3.0625z"/>
   <path d="m512.87 865.84c-8.1168 24.803 16.013 12.559 18.831 3.032 3.9305-13.288-0.34304-33.402-18.831-3.032z"/>
   <path d="m514.97 865.69c-6.2716 19.164 12.373 9.704 14.55 2.3427 3.037-10.267-0.26506-25.809-14.55-2.3427z" fill="#fff"/>
   <path d="m534.05 813h0.0296c0.35945-0.0286 0.71686-0.0123 1.0666 0.0296 2.4556 0.11251 4.9123 0.53542 7.17 1.4814 2.3675 1.0298 4.3513 2.8282 5.9256 4.8886 1.6306 2.1537 3.1725 4.3834 4.1479 6.8737 0.82247 2.2608 1.2838 4.6497 1.5999 7.0514 0.52637 3.248 0.77667 6.5417 1.1259 9.8365 0.19883 2.3296 0.46865 4.6484 0.59255 6.9626 0.13133 3.144 0.36494 6.2587 0.11852 9.3624v0.0296c-0.2332 3.2817-0.87759 6.5168-1.6888 9.718-0.88395 3.4357-2.0226 6.8089-3.4072 10.074-1.0716 2.4084-2.0732 4.8252-3.4665 7.0218h-0.0296c-1.4304 2.3578-3.2504 4.4685-5.1849 6.4589-3.5731 3.5421-7.5024 6.6982-11.733 9.4217-4.8623 2.8699-9.843 5.5037-14.814 8.207h-0.0296v0.0296c-1.9041 1.0708-3.8202 2.079-5.8367 2.8739-2.7247 0.84848-5.545 1.4575-8.3551 2.0443v0.0296c-0.55632-5e-3 -1.0463 0.19032-1.4518 0.35553-0.43084 0.17553-0.72815 0.28363-1.0962 0.11851l-0.0592-0.0296h-0.0592c-1.9103-0.19959-3.813-0.42039-5.7182-0.65181-1.1029-0.17161-2.2008-0.10827-2.8739-0.79996-0.25125-0.24386-0.25877-0.47979-0.11851-0.77032s0.45661-0.56251 0.7407-0.65182c1.7536-0.20139 3.5424-0.26686 5.333-0.4148 3.95-0.31845 7.9947-0.34058 11.94-1.2147 2.2387-0.49974 4.4589-1.1654 6.5182-2.2517v-0.0296h0.0296c3.3267-2.0039 6.5496-4.1252 9.8069-6.2219 3.7718-2.5244 7.6004-5.0013 11.288-7.6736 2.3033-1.7638 4.6778-3.5604 6.6367-5.7774 2.38-2.6897 3.9501-5.8928 5.4515-9.0662h0.0296v-0.0296c1.0326-2.2596 2.0667-4.5264 2.8147-6.9329 0.60271-1.7389 0.88585-3.527 1.2444-5.2738 0.86299-4.4565 1.479-8.9574 2.0443-13.451 0.5032-3.5105 0.28179-7.0429 0-10.518-0.29567-3.7895-0.80072-7.5728-1.6592-11.288-0.58664-2.5206-1.1718-5.0836-2.2517-7.4959-0.62788-1.5097-1.4248-2.9515-2.4591-4.2368l-0.0296-0.0296c-0.90008-1.279-2.0677-2.3352-3.2887-3.2591v-0.0296c-2.0581-1.452-4.4626-2.2369-6.8441-2.8146v0.0296c-1.0612-0.34768-2.1434-0.39756-3.0517-0.7407-0.22769-0.078-0.44646-0.38017-0.47404-0.68144-0.0138-0.15064 0.0347-0.29546 0.0888-0.38516 0.0501-0.0827 0.10459-0.14555 0.23702-0.17777z"/>
   <path d="m504.9375,744.5625c.40313.62677.13788,1.48456-.4375,1.90625 1.15075.34262 2.30714.66501 3.46875.96875l7.90625,2.9375c.93082.43334 1.87084,1.00728 2.375,1.9375 .40998,1.15779.65558,2.36975.75,3.59375l.34375,1.71875c.56554-.21424 1.18628.0613 1.5625.5 .31725-.93884-.0921-1.89239-.15304-2.83329-.007-1.01435-.14988-2.02773-.33088-3.02398-.16827-.97768-.60351-1.95119-1.45358-2.51773-.82909-.64227-1.8178-.99725-2.76311-1.42596-1.00519-.45494-2.0702-.76024-3.10107-1.15094-2.74873-.96734-5.52629-1.84999-8.29207-2.76685l.1142.14275 .0108.0135z"/>
   <path d="m493.48 856.73c-0.40066 0.83417-1.351 1.1007-2.1537 1.3886-1.0436 0.51643-1.3435 1.738-1.587 2.7772-2.2854 8.9036-4.6518 17.795-6.4061 26.823-0.42144 2.3472-0.26583 4.7631 0.24159 7.0841 0.44513 2.2265 0.99127 4.4325 1.4451 6.6579 0.66276 2.833 0.9834 5.7277 1.4038 8.6025 0.12099 0.69215 0.62235 2.2065 1.5342 1.4981 0.72639-0.7871 1.417-1.6567 1.7531-2.6883-0.24917-1.0491-2.0038-1.9812-2.0719-3.0775-0.33073-2.6517-1.0723-5.2283-1.6297-7.837-0.77757-2.9998-0.62193-5.282-0.34099-8.3795 0.17479-2.4702 0.71646-4.8953 1.0434-7.347 0.82399-5.1386 2.6131-11.043 3.937-16.073 0.47751-1.8601 1.0688-3.6858 1.7065-5.4961l1.238-3.7626c0.15576-0.0378 8e-3 -0.28798-0.11336-0.17003zm-3.2873 51.208c-0.10357 0.22554-0.52259 1.1675-0.17003 0.48176 0.19738-0.19171 0.54503-1.3049 0.1927-0.54071zm-5.2426 3.769c0.0705 0.29808 0.91752 0.46287 0.28339 0.14169 9e-3 -0.0262-0.4228-0.3959-0.28339-0.14169zm1.2752 0.39674c0.1888 0.18446 0.26489-0.15538 0 0z"/>
   <path d="m518.7 865.43c-3.0051 9.1827 5.9287 4.6498 6.972 1.1225 1.4552-4.9196-0.12701-12.366-6.972-1.1225z"/>
   <path d="m386.28383,909.14826c-.75011.35853-.79248,1.14798.35072.97809 2.21465,1.75362 4.84587,2.24424 8.08604.86873 1.00953.18051 2.93179.52554 3.14865-.55698-.57557-.95636-2.26646-.57213-3.38461-.55037-4.0521,1.0565-5.93686.0993-8.12006-.65152 .0663-.0116-.0339-.18543-.0807-.0878z"/>
   <path d="m436.49 842.86c-3.0387 0.35736-5.8722 1.6202-8.5331 3.0734-4.0372 2.2676-7.9742 4.7109-11.873 7.2079-0.87363 21.17-5.7478 2.6409 0.65625 2.3438 1.6764-0.16589 3.008-1.3127 4.3747-2.1891 4.1734-2.7018 8.3099-5.4617 12.469-8.1859 3.619-1.3229 7.5159-1.3768 11.25-2.1875 0.43339-0.20927-0.8207 0.0174-1.0577-0.0259-2.4286 0.0905-4.8576-0.14972-7.286-0.0366z"/>
   <path d="m416.48 853.03c-1.1682 0.70238-1.6305 2.1946-2.0354 3.5145-1.9695 5.9598-3.787 11.981-5.5679 18.014-0.63479 2.2178-1.2149 4.4539-1.7644 6.6996-0.87677 3.417-1.3484 6.9568-1.5502 10.501-0.0578 1.4296-0.0943 2.8613-0.22001 4.2862-0.39512 1.9431-2.0027 3.1671-2.5576 5.0262-0.36723 0.61919-0.76168 2.2678 0.35752 2.0352 0.92999-0.26788 0.96886-1.5034 1.3736-2.3004 0.33338-0.94789 0.89077-1.7492 1.437-2.5495 0.49813-0.89158 1.3522-1.7133 1.2596-2.8591-0.11374-0.99356-0.23566-1.9878-0.21663-2.9938 0.0373-3.1244 0.55185-6.2142 1.3029-9.2161 0.87643-3.5916 2.0552-7.079 3.1137-10.606 1.8436-6.0092 3.7914-11.977 5.7279-17.949 0.16253-0.55761 0.15177-1.8565-0.66003-1.6035z"/>
   <path d="m403.875,898.53125c-.64398.65191-.76115,1.61278-.98315,2.46104-.37226,1.42434-.76684,2.84269-1.1731,4.25771-.34891.77733-1.13266,1.21162-1.90625,1.46875 1.06302-.12938 1.96051-.87892 2.43129-1.81674 .48647-.87886.69667-1.8792 1.12816-2.77948 .29978-.55857.9289-.6949 1.47906-.79803 .5882-.48124 1.1601-1.22673 2.02399-1.04325 .26936-.53092-.43459-1.0359-.84375-1.3125-.56393-.40679-1.55938-1.15886-2.15625-.4375zm19.125,2.40625c-1.95981.534-3.9072,1.1263-5.90625,1.5-1.00916.29368-2.05219.41837-3.09375.53125-1.0266-.0505-2.04177-.22337-3.03125-.5-.98574-.0435-1.85809.61256-2.46165,1.33576-.26698.26139-.59456.44387-.91335.63299 .99133.0368 1.89471.50867 2.79716.87398 .94208.34259 1.93565.49939 2.92159.65727 1.04925.0869 2.092-.13228 3.12898-.26744 2.22302-.40572 4.42896-.90405 6.62102-1.45131 .82378-.20429 1.72972-.6968 1.87031-1.61093 .10833-.76886-.44506-1.49583-1.18281-1.70157-.24315-.0485-.50689-.0488-.75,0zm-15.40625,3.5c-.083-.11428-.40324.0696-.005,0h.005z"/>
   <path d="m405.8125,906.78125c.0822.31781.11974-.24287 0,0z"/>
   <path d="m404.0625,908.0625c-.42079.90683.6783,1.86518 1.5625,1.59375 .58638-.15392 1.12741-.53456 1.75-.5-1.07619-.26643-2.02699-.86781-3.09375-1.15625h-.125l-.0937.0625z"/>
   <path d="m410.4375,908.34375c.12187.0427.0467-.0975 0,0z"/>
   <path d="m410.44 908.34c-0.17193-0.0581-0.0781 0.10515 0 0z"/>
   <path d="m423.0625,875.75 .15625-.0625-.15625.0625z"/>
   <path d="m439.88 859.66c-2.8935 1.6097-4.4683 5.2224-7.8969 5.8731-1.9072 0.0289-2.3307 2.8088-4.6512 2.5884-3.0678 0.34135-3.3426 3.9791-4.4063 6.2284-0.93653 2.8831-2.2985 5.9429-0.82686 8.9038-0.96516 2.1529-0.46418 4.5604-1.0267 6.9502 0.43292 1.9157 0.32106 4.3666-1.6414 5.4087-2.1718 0.9608 0.26143 3.2945-0.24287 4.9224 1.6214 1.3987 5.3888-0.73814 5.4032 2.1889-4.2998 10.1 3.7298 4.5124 2.8282 6.9574 1.4674 6.474-7.4566 11.427-11.487 7.7969 0.30168 3.2304 5.6527 2.0542 7.2265 1.0983 2.3188-1.3213 3.8163-6.0668 5.7794-7.7684 2.7241-1.5972 6.0006 0.023 8.9662-0.27253 4.4588-0.15175 8.5121-2.2467 12.601-3.8131 2.3133-2.4009-1.9245-3.2004-3.3506-1.5009-2.8193 1.3163-5.5734 2.8199-8.4505 3.9831-2.6067 0.4773-12.303 0.29325-13.065-1.922 0.31779-5.6618 6.3783-13.468 6.7175-17.721 2.4192-9.6809-2.3315-19.219 8.6169-28.651 0.0428-0.57847-0.40561-1.4351-1.0937-1.25zm-11.438 14.031c-0.0438 0.26692-0.19187-0.39043 0 0zm25.531 31.844c-0.0763 0.55939 0.44149-0.33737 0 0zm-26 0.0625c0.89835 1.201-0.59743 3.973-0.58579 1.3506 0.11431-0.44746 0.27175-1.0523 0.58579-1.3506z"/>
   <path d="m436.28125,807.34375c-3.40307.66871-6.80919,1.341-10.17343,2.18281-.86009.29288-1.5299,1.18907-1.45157,2.09844 .7094.57391.6903,1.43088.97954,2.21446 .0835.72127.86376,1.36625 1.41291.60846 1.85613-1.4863 3.68737-3.05668 5.85755-4.07292 .69455-.71411 1.71617.0618 2.41049-.49379 .71239-.41039 1.34755-.97931 1.80826-1.66246 .41664-.57646-.27031-1.23732-.84375-.875z"/>
   <path d="m422.875,811.375c-.48568.19478.62943-.15963 0,0z"/>
   <path d="m482.35095,889.59915c-.72321-.52815-1.5183-1.2033-2.25958-1.76221-2.82281-2.21422-5.68484-4.51164-8.52846-6.77007-.62905-.53285-1.36643-1.19883-1.80086-1.37521-.33592-.0656-.23678.36481-.12898.7586 .11173.44704.27011,1.00812 1.04853,1.91242 .74717.85515 1.54833,1.50087 2.29215,2.16171 .7874.70025 1.5742,1.39872 2.33998,2.03416 1.33514,1.12101 2.64438,2.17783 3.95113,3.23394 .63606.539 1.22488.89658 1.28222.62933 .12437-.24811.23884-.59623 1.0706.0427 .67225.47697 1.46991,1.52656 2.1033,1.99642 .36726.0143-.61196-1.17091-.66101-1.5452-.27617-.46101.33165-.4657-.70899-1.31656z"/>
   <path d="m382.4163,918.77597c.10742-.98439.24196-1.96716.43114-2.94073 .26758-1.59194.93531-3.06861 1.41604-4.59843 .15586-.51289.47991-1.0129.21495-1.52727 .2741.78128 1.62108,1.29694.93055,2.23267-.65818,1.79981-1.04548,3.74346-.83203,5.67233 .15267.85701.54595,1.67278 1.15809,2.30164 .61377.67097 1.41076,1.12663 2.233,1.49155 1.61455.76854 3.42519.97056 5.18554,1.02115 3.33284-.0254 6.57701-.84561 9.81155-1.52911 .9615-.28752 1.99387-.38057 2.89593-.83037 6.58601-3.41008 14.52065-3.63468 1.23146.68523-.66773.79082-1.80185.86791-2.64332,1.4135-1.99363.98977-4.09955,1.74854-6.23743,2.37137-.9207.26331-1.89886.33707-2.84119.10943-1.47989-.27812-2.93839-.7283-4.4459-.8132-.89456-.0107-1.81757.30299-2.68967-.0139-1.37068-.44772-2.79989-.92267-3.87622-1.93211-.70272-.61965-1.35594-1.32979-1.686-2.22175-.11795-.28817-.24549-.57662-.25649-.89208z"/>
   <path d="m436.04706,812.68045-.125,1.21875c-.82571.53488-1.46869,1.30624-2,2.125-.51061.89029-.83533,1.88206-1.4375,2.71875-.25095.0885-.49272-.13026-.75-.0937 .65986.42719 1.16734,1.28527 2.03125,1.28125 .34537.0199.40385-.43612.63066-.61289 .61693-.87251 1.17221-1.79563 1.68184-2.73086 .36402-1.03849.15624-2.14578.0716-3.21189l-.0716-.78811-.0312.0937z"/>
   <path d="m432.16063,823.59813c-.3056.25103-.75204.14904-1.09375.0312-.51796.8952-1.09518,1.77468-1.36562,2.78435-.31462.84103-.17267,1.7563-.006,2.61392 .0886.49525.1986.98605.30923,1.47673 .0621-1.04203.25173-2.09613.68749-3.04998 .54061-1.27545 1.08352-2.54994 1.62501-3.82502-.12426.002.13364-.31943-.15625-.0312z"/>
   <path d="m427.76 830.45c-0.89261 1.7884-0.68577 3.2765-1.273 5.1731-2.666 5.4177-4.5699 13.176-1.4499 14.047-0.4696 0.65199-0.48833 2.1367 0.66307 2.0517 0.8157-0.15117 1.1437-0.99502 1.2869-1.6806 0.37124-1.4814 0.92325-2.9167 1.3686-4.3792-4.9008 4.1075-1.931-6.3401-0.59704-9.8566 0.57165-1.534 1.1432-3.077 1.814-4.5708 0.5711-0.28015-0.40284-0.16679-0.57983-0.41083-0.48589-0.0451-0.88687-1.0163-1.2329-0.37366z"/>
   <path d="m453.21 848.49c-3.973 3.3142-7.8679 6.7394-12.117 9.7028-1.8436 1.2409-3.7 2.4621-5.5975 3.6193-1.9652 1.2714-3.9489 2.5134-5.942 3.7404-1.7429 0.80828 4.6586-0.38177 2.7525-0.0397-0.80074-0.0412-9.6199 2.822-9.2525 3.5709 0.30396 0.95309 1.4212 0.72878 2.1817 0.66731 2.3809-0.20329 4.6257-1.1469 6.6682-2.3466 2.1029-1.137 3.9786-2.6303 5.9285-4.0014 3.9307-2.8616 7.7239-5.9062 11.548-8.9066 1.3798-1.2231 2.933-2.3161 3.9546-3.8815 0.34198-0.54304 0.99439-2.1147-0.125-2.125z"/>
   <path d="m421.00207,833.36803c-.9703,1.08015-1.84453,2.27881-2.31685,3.66511-.81397,1.96062-1.69795,3.90278-2.2544,5.95736 .01,2.4678.0484,4.93515.11371,7.4021 .22695,1.04327 1.20454,2.19285 2.01812,2.46424 .27993-.14199.52433-.23533.47487-.62284 .37459-1.21786-.009-2.4856.0798-3.72831-.006-2.06435-.16214-4.12775-.10676-6.19172 .0603-1.28555.45821-2.50925.8394-3.72736 .21549-.78126.5405-1.52535.81545-2.28645 .40707.25046.23695,1.16624.90608,1.04097 .60988-1.15317.58132-2.58649.0643-3.76825-.0787-.23311-.44366-.39714-.63397-.20485z"/>
   <path d="m407.47303,926.18984c.12115-.89736.27295-1.79324.48634-2.68074 .30183-1.4512 1.05504-2.79731 1.59731-4.19188 .1758-.46754.54134-.92334.24246-1.39224 .30918.71221 1.82859,1.18228 1.04967,2.03527-.74244,1.6407-1.17932,3.41251-.93854,5.17085 .17221.78123.61583,1.52488 1.30633,2.09814 .69234.61165 1.59136,1.02703 2.51884,1.35968 1.82122.70059 3.86363.88476 5.84933.93087 3.75947-.0232 7.41893-.77085 11.0675-1.39392 1.08458-.26209 2.2491-.34692 3.26664-.75695 .53285-.32204 1.91303-.0138 1.38909.62465-.7532.7209-2.03249.79118-2.98168,1.28852-2.24883.90227-4.62432,1.59396-7.03587,2.16173-1.03855.24002-2.14192.30727-3.20489.0997-1.66932-.25353-3.31451-.66391-5.01499-.74131-1.00909-.01-2.05024.27621-3.03398-.0126-1.54614-.40814-3.15831-.8411-4.37242-1.76129-.79266-.56487-1.52949-1.21223-1.90181-2.02532-.13304-.2627-.27692-.52565-.28933-.81321z"/>
   <path d="m443.09375,924.03125c-.4244.97324-1.73735.99577-2.6058,1.40041-1.01946.29774-2.08358.42009-3.1442.38084-.45965-.12198-1.29772.46466-.73445.81247 .88119.30402 1.835.0828 2.73445.28128 1.21547.12011 2.37608-.38111 3.47601-.83175 .57978-.1307 1.06538-.74264.55524-1.262-.15325-.12259-.22353-1.1838-.28125-.78125z"/>
   <path d="m410.95005,917.86521c-.94537.4587-.85391,1.24643.65776.92027 3.32071,1.43092 6.96606,1.55341 11.08228-.25645 1.39717.0393 4.0578.11556 4.14677-.98653-.9573-.8677-3.16817-.2536-4.67392-.0776-5.27264,1.60605-7.99792.91835-11.08731.47627 .0874-.0206-.0807-.17897-.12557-.0758z"/>
   <g transform="matrix(-.1003 -.45902 .45902 -.1003 78.31 1067.4)">
    <path d="m358.47 807.18c-1.6806 0.4192-3.4191 0.46846-5.135 0.64136-2.4622-0.13292-4.9225-0.3467-7.3902-0.32709-2.1389-0.088-4.2788-0.18135-6.42-0.13466-4.7599 0.77808-5.4257 0.90168-10.186 1.6798-1.4765 0.47375-4.1856 3.5164-4.7488 5.07 0.044 1.6929-0.19346 3.4831 0.56497 5.0632 2.9373 6.6214 0.67828 8.973 3.6156 15.594 0.65383 1.2551 2.6392 1.5845 3.5752 0.48249 0.82474-1.331 1.1684-3.0602 2.5038-4.0306 1.4264-0.94052 3.1912-1.0865 4.8326-1.4046 3.1854-0.5666 6.3713-1.1302 9.5354-1.8076l4.0169-0.8222c-6.4247-1.2449-12.387 2.1728-18.82 0.97316-2.0418-1.2758-6.5037-4.1307-4.9714-6.2304 0.91825-1.1384 2.5141-1.1453 3.8442-1.3246 1.9602-0.15134 3.9303-0.17836 5.8943-0.28279 2.312-0.11497 4.6297-0.15626 6.9377-0.32238 0.76754-0.0552 1.5233-0.20378 2.2797-0.34119-7.8626-0.98115-19.747 0.1301-20.866-4.3594-1.1642-0.114 0.15137-2.2634-0.9945-2.4986 1.8557-1.3309 1.2097-0.81475 3.3898-1.581 2.0463-0.78137 4.1456-1.4661 6.3243-1.7537 1.8138-0.3673 3.6702-0.37886 5.5101-0.50466 1.8161 0.0445 3.6321 0.1314 5.4277 0.42504 2.253 0.26547 4.5099 0.49234 6.7707 0.68007 1.4651-0.22395 3.0304-0.47387 4.1606-1.5241 0.24513-0.32449 1.0879-1.0772 0.34854-1.3601z"/>
    <path d="m359.84 834.67c-1.7282-0.36197-3.4932-0.52699-5.2571-0.56651-1.9423 0.0673-3.8154 0.63065-5.6923 1.083-2.5228 0.68532-5.0171 1.6638-7.6623 1.7188-0.97659-0.0161-1.9688-0.16095-2.869-0.55214-1.2045-0.61492-2.3989-1.2554-3.629-1.8166-2.1914-2.9721-2.0908-0.60829-3.128-0.58849-1.5014-8e-3 -3.0033 0.0462-4.4982 0.18961 0.98272 0.22731 1.4802 1.214 2.329 1.6743 0.26944-0.0122 0.78164 0.27747 0.45957 0.56051 0.1323 1.1142 1.182 1.7365 2.0892 2.2024 1.02 0.57796 2.1537 0.91289 3.2778 1.2204 1.219 0.27873 2.4528 0.5116 3.6962 0.64325 1.0209 0.0735 2.0928 0.0932 3.0338-0.37341 1.0022-0.45001 1.9156-1.0687 2.8831-1.5865 1.2102-0.67098 2.3918-1.3945 3.6146-2.0417 0.97823-0.37463 2.0558-0.39206 3.0721-0.17641 2.039 0.36326 4.0827 0.69781 6.1287 1.0186 1.1593-3e-3 1.2041-1.4782 1.7909-2.1337 0.0963-0.12228 0.89333-0.35447 0.36108-0.47546z"/>
    <path d="m359.69 833.94c0.45031 0.67886-0.46977 2.6292-14.369 13.329 6.89-7.4759 7.0974-10.765 10.947-12.542 2.0077-0.83222 3.3942-1.1736 3.4204-0.78582z"/>
    <path d="m349.56 841.91c-1.2326 1.0263-2.5662 2.0043-3.4097 3.3998-1.0743 1.7434-1.9372 3.6023-2.838 5.4381-0.35391 0.34399-0.7594 1.2403-3e-3 1.3266 0.50548 0.50333 1.394 0.75839 1.8092-9e-3 0.77322-0.75511 1.0624-1.8238 1.6025-2.7313 1.1536-2.1737 2.4008-4.3002 3.4527-6.5261 0.18208-0.40627 0.20741-0.90238 0.0366-1.3166l-0.65027 0.41811z"/>
    <path d="m352.87068,850.33834c-1.12745.0732-2.26757.0429-3.39988.0764-1.18694-.22575-3.02464-.17533-4.00767.30683-.42435.31499-1.63902.90358-1.89302,1.23646 .80108.54445 3.33044.65065 4.23835.88296 1.03521.01 2.10968.15849 3.11942-.0969 .81778-.36805 1.24304-1.22317 1.74628-1.91764 .0127-.14769.50808-.39286.19653-.48813z"/>
    <path d="m348.02 853.47c0.72071-0.75225 8.1283-8.063 17.842-18.199-6.1812 8.0718-10.834 14.984-14.506 17.103-1.9236 1.0114-3.2733 1.4775-3.3347 1.0938z"/>
   </g>
   <path d="m446.31 754.25-5.9688 3.1875c-1.1908 0.84205-2.4153 1.6449-3.5 2.625l-4.0938 3.5c-0.71526 0.83399-1.4405 1.664-2.0312 2.5938-0.94641 1.4355-1.8733 2.8836-2.7812 4.3438-1.9607 3.9793-3.8741 7.9825-5.6875 12.031-0.43432 1.0128-0.71121 2.0823-1.0625 3.125-0.35512 1.1032-0.54499 2.2491-0.8125 3.375-0.54978 2.742-1.1064 5.4826-1.6028 8.2348-0.21808 1.0942-0.40756 2.1927-0.5156 3.3037-0.11874 1.0266-0.15208 2.0558-0.0691 3.0865 0.2389 2.0196 0.54156 4.0331 0.6875 6.0625 0.20069 0.94192-0.11919 1.963-0.78125 2.6562-0.71519 0.76507-1.5297 1.4492-2.1388 2.3041-0.5417 0.86657-0.88542 1.8468-1.2783 2.7885-0.54461 1.3791-1.1774 2.7277-1.5829 4.1574-0.13007 0.58831 0.10532 1.5755 0.875 1.4688 0.23697-0.0554 0.49682-0.1041 0.71875 0.0312 0.37171-0.72502 0.62022-1.5477 0.50858-2.3689-0.0586-0.71535-0.29763-1.5081-0.35233-2.1624 0.10821 0.0944 0.0283-0.25779 0.1875-0.1875 0.56476-0.0927 1.0173-0.44994 1.2775-0.95194 0.60881-0.88584 1.2192-1.7704 1.8576-2.636 0.64529-0.94528 1.3522-1.8683 1.7711-2.9433 0.24301-0.9931 0.38401-2.0071 0.4653-3.0244 0.10855-0.8841-0.0744-1.7838-0.34373-2.6252-0.31399-0.8853-0.498-1.8066-0.52693-2.7459-0.0792-1.0554 0.0671-2.1151 0.20261-3.1609 0.12533-1.055 0.27738-2.1072 0.52476-3.1413 0.33021-1.5794 0.77363-3.1323 1.2734-4.6659 0.29777-1.0831 0.71491-2.1258 1.0803-3.1868 1.0182-2.8723 2.0188-5.7512 3.0478-8.6195 0.5612-1.4397 1.1479-2.8698 1.8077-4.2675 0.4094-0.99595 1.0202-1.891 1.4545-2.8778 0.63076-1.2277 1.2011-2.4874 1.8892-3.6847 0.50746-1.0049 1.0308-2.0029 1.6869-2.9209 0.73428-1.0561 1.5399-2.0608 2.3888-3.0267 0.69102-0.79931 1.5489-1.4309 2.4078-2.0375 1.5666-1.1412 3.1771-2.2209 4.8276-3.2369 1.174-0.73381 2.3407-1.4795 3.5326-2.1841 0.6972-0.44984 1.4368-1.5577 0.6875-2.2812l-0.0312 0.0625z"/>
   <path d="m441.25 802.93c-13.727 1.6103-24.309 7.9063-37.838 13.153-0.63572 1.4894-1.8023-1.3636-1.7369-0.80258 0.86853 0.89705 0.078 3.9084 1.6547 3.6326-4.787 6.3288 10.194 2.7632 21.003-4.4836 7.3159-2.7897 7.4433-7.2362 14.826-8.8624-4.0606 3.1026 3.3994-1.01 2.406-2.5381l-0.15903-0.0815-0.15548-0.0177z" stroke="#000"/>
   <g transform="matrix(.29551 -.65635 -.65635 -.29551 936.88 1315.5)">
    <path d="m358.47 807.18c-1.6806 0.4192-3.4191 0.46846-5.135 0.64136-2.4622-0.13292-4.9225-0.3467-7.3902-0.32709-2.1389-0.088-4.2788-0.18135-6.42-0.13466-4.7599 0.77808-5.4257 0.90168-10.186 1.6798-1.4765 0.47375-4.1856 3.5164-4.7488 5.07 0.044 1.6929-0.19346 3.4831 0.56497 5.0632 2.9373 6.6214 0.67828 8.973 3.6156 15.594 0.65383 1.2551 2.6392 1.5845 3.5752 0.48249 0.82474-1.331 1.1684-3.0602 2.5038-4.0306 1.4264-0.94052 3.1912-1.0865 4.8326-1.4046 3.1854-0.5666 6.3713-1.1302 9.5354-1.8076l4.0169-0.8222c-4.4716-4.4492-11.676 1.0057-18.82 0.97316-2.0418-1.2758-6.5037-4.1307-4.9714-6.2304 0.91825-1.1384 2.5141-1.1453 3.8442-1.3246 1.9602-0.15134 3.9303-0.17836 5.8943-0.28279 2.312-0.11497 4.6297-0.15626 6.9377-0.32238 0.76754-0.0552 1.5233-0.20378 2.2797-0.34119 1.0198-4.6598-14.475-2.0533-20.866-4.3594-1.1642-0.114 0.15137-2.2634-0.9945-2.4986 1.8557-1.3309 1.2097-0.81475 3.3898-1.581 2.0463-0.78137 4.1456-1.4661 6.3243-1.7537 1.8138-0.3673 3.6702-0.37886 5.5101-0.50466 1.8161 0.0445 3.6321 0.1314 5.4277 0.42504 2.253 0.26547 4.5099 0.49234 6.7707 0.68007 1.4651-0.22395 3.0304-0.47387 4.1606-1.5241 0.24513-0.32449 1.6997-0.51322 0.96032-0.7961z"/>
    <path d="m332.88 833.06c-0.81534 1.0356-2.12 0.98151-3.297 0.92439-0.83035-4e-3 -1.6564 0.0866-2.4843 0.13811 1.0203 0.57258 2.2557 1.4402 2.875 2.25 0.10122 1.5286 1.8676 2.0816 3.0312 2.6875 1.8833 0.80747 3.9367 1.0285 5.9375 1.375 1.56 0.20389 3.1323-0.17588 4.4102-1.0991 1.6947-0.98863 3.407-1.9464 5.1211-2.9009 2.0252-0.70325 4.119 0.11753 6.1562 0.3125 1.1862 0.17336 2.3877 0.67487 3.5938 0.375 0.82866-0.59978 0.80691-1.9266 1.8125-2.3438-1.6049-0.50631-3.3041-0.54423-4.9688-0.6875-2.2765 0.0284-4.4877 0.66645-6.6753 1.2354-2.3604 0.64927-4.7001 1.5366-7.1789 1.5622-1.6806 0.12414-3.2086-0.69416-4.6458-1.4538-1.4589-0.36089-2.2831-1.6773-3.4688-2.4062l-0.21875 0.0312z"/>
    <path d="m358.3125,834c-1.77112.6831-3.42357,1.66943-4.8125,2.96875-.0725,1.14911 1.18035.0751 1.81237.48293 .55603-.12866 1.28688.92538 1.49755.46753 .60242-1.17898 2.43027-1.72718 2.37758-3.23171-.0945-.3816-.4188-.85052-.875-.6875z"/>
    <path d="m349.40625,841.25c-.0489-.0602-.36582-.0233 0,0zm-5.9375,6.5c.27664-.32275.18973-.22135 0,0z"/>
    <path d="m351.875,843.09375c.26364.10429-.24364-.18941 0,0z"/>
    <path d="m350.625,844.1875c-.0208-.0104-.0208-.0104 0,0z"/>
   </g>
   <path d="m488.99 857.47c-1.5774 1.4613-3.4669 2.866-5.1126 4.3264-6.4079 5.3775-12.991 10.718-19.492 16.075-1.4928 1.1141-3.3106 2.3318-4.0266 3.5105-0.43727 1.0627 0.36746 1.6273 1.1205 2.0826 0.84438 0.55494 1.922 1.1865 4.1718 0.3312 2.1384-0.84856 3.9855-2.3379 5.8012-3.5895 1.9232-1.3235 3.8429-2.6487 5.6384-4.0333 3.152-2.386 6.1731-4.8164 9.1907-7.2393 1.5098-1.1261 2.675-2.4706 2.2919-3.2469-0.28586-0.97543-0.74584-2.129 1.1201-3.7424 1.4433-1.3882 3.9508-2.0021 5.3443-3.2663 0.38372-1.2845-2.5248-0.31013-3.1882-0.93419-1.0286 5e-3 -0.44025-2.1825-2.8594-0.27397z"/>
   <path d="m483.6 863.17c-1.5774 1.4613-3.4669 2.866-5.1126 4.3264-6.4079 5.3775-12.991 10.718-19.492 16.075-1.4928 1.1141-3.3106 2.3318-4.0266 3.5105-0.43727 1.0627 0.36746 1.6273 1.1205 2.0826 0.84438 0.55494 1.922 1.1865 4.1718 0.3312 2.1384-0.84856 3.9855-2.3379 5.8012-3.5895 1.9232-1.3235 3.8429-2.6487 5.6384-4.0333 3.152-2.386 6.1731-4.8164 9.1907-7.2393 1.5098-1.1261 2.675-2.4706 2.2919-3.2469-0.28586-0.97543-0.74584-2.129 1.1201-3.7424 1.4433-1.3882 3.9508-2.0021 5.3443-3.2663 0.38372-1.2845-2.5248-0.31013-3.1882-0.93419-1.0286 5e-3 -0.44025-2.1825-2.8594-0.27397z"/>
   <path d="m483.6 863.17c-1.5774 1.4613-3.4669 2.866-5.1126 4.3264-6.4079 5.3775-12.991 10.718-19.492 16.075-1.4928 1.1141-3.3106 2.3318-4.0266 3.5105-0.43727 1.0627 0.36746 1.6273 1.1205 2.0826 0.84438 0.55494 1.922 1.1865 4.1718 0.3312 2.1384-0.84856 3.9855-2.3379 5.8012-3.5895 1.9232-1.3235 3.8429-2.6487 5.6384-4.0333 3.152-2.386 6.1731-4.8164 9.1907-7.2393 1.5098-1.1261 2.675-2.4706 2.2919-3.2469-0.28586-0.97543-0.74584-2.129 1.1201-3.7424 1.4433-1.3882 3.9508-2.0021 5.3443-3.2663 0.38372-1.2845-2.5248-0.31013-3.1882-0.93419-1.0286 5e-3 -0.44025-2.1825-2.8594-0.27397z"/>
   <path d="m460.93282,906.40998-.0915.0305-.15254.0305c-.66397.15151-1.27264.47059-1.83055.73222-1.3001.66945-2.46961,1.54311-3.50854,2.56276-1.44881,1.37763-2.79073,2.88946-4.05771,4.42382l-.0305.0305c-.68514.81225-1.34616,1.66169-1.92208,2.56276-.56787.97881-.79847,2.06577-1.12883,3.05091l-2.13564,6.83404h.0305c-.1099.2037-.14953.42715-.0915.64069 .0666.245.25285.48311.54917.54917l.0305.0305h.0305c.27659.008.50521-.16142.64069-.3356 .12919-.16611.20046-.35099.24407-.51866 .002-.008-.002-.0224 0-.0305 .43937-1.34123.84551-2.69567 1.28138-4.0272 .44827-1.38569.88526-2.75023 1.37291-4.11873 .46497-1.27723 1.13491-2.48901 1.92208-3.60007 .72825-1.04237 1.52165-2.05963 2.3797-2.98989 1.05598-1.1397 2.19587-2.22067 3.50855-3.0204 .70064-.43079 1.47226-.75952 2.25767-.88476 .72817-.12731 1.52311.17085 2.0136.73221v.0305c.60661.60695 1.01501,1.38755 1.28139,2.22717 .33428,1.04603.46469,2.17784.51865,3.29498 .0001.0102-.00011.0203 0,.0305 .01.94032.0604,1.88555.061,2.80684 .007.47264.0118.92339-.0305,1.37291h.0305c-.0603.18106-.12925.40453-.0915.64069 .0206.12911.069.24992.18305.36611s.28247.19155.45764.18305h.061l.0305-.0305c.29487-.11295.46214-.38975.51865-.61018s.0595-.40621.0915-.51866v-.0305c.26878-1.03242.47203-2.06818.54917-3.14243 .0534-.7468.20058-1.55454.061-2.37971l-.0305-.0305c-.21766-.72519-.63707-1.27587-.85425-1.86106v-.0305h-.0305c-.23337-.5022-.43599-.96698-.42713-1.43393h-.0305c.052-.29661-.0132-.55621-.12204-.76272s-.23895-.40319-.30509-.54917h-.0305c-.40548-.72622-.98113-1.3505-1.70851-1.76952-.44395-.26514-.94574-.43226-1.46443-.45764l-.0305-.0305z"/>
   <path d="m452.73735,931.90917c-.82633-.22817-1.61883-.56234-2.42659-.84707-.83183-.30036-1.65683-.63386-2.42221-1.0804 .28467.40112.66091.721 1.04673,1.02066 .41508.3832.88877.69258 1.38789.95496 .46441.2914.99347.49643 1.55076.45404 .37075.032.75971-.0895 1.11461.0418-.12494-.17388.055-.52853-.25119-.54395z"/>
   <path d="m457.0625,909c-.94318.61129-1.73719,1.3758-2.53125,2.15625 .28935-.29309.54543-.62259.84375-.90625 .50128-.49198 1.12355-.83341 1.6875-1.25z"/>
   <path d="m465.70819,916.07367h-.061 .061zm-.94474.33942c-.39218.38485-.7586.78974-1.09712,1.21628 .34572.43374.58884.92334.82284,1.41427 .26148-.81159.91092-1.58945.64232-2.47613-.0409-.12716-.23265-.23361-.36804-.15442zm.91427.14143c-.24335.62023-.25035,1.53552.4876,1.86684-.10744-.6696.37943-1.60759-.42666-2.03654l-.0564.15696-.005.0128zm-1.46282,3.28112c-.84375,1.75668-1.65332,3.53074-2.62089,5.23282-.50047.83156-1.29123,1.45511-1.94134,2.1802-.9278.99-2.15408,1.67175-3.26994,2.45861-1.38881.93607-2.83906,1.79167-4.23608,2.71541-.36879.26102-.66269,1.0521.0558,1.0603 1.08064.0462 1.85406-.79038 2.68824-1.30157 1.01142-.69057 1.94938-1.46777 2.9398-2.1837 1.25764-.94275 2.48343-1.93637 3.49082-3.11663 .60985-.7295 1.15254-1.50923 1.67982-2.29242 .62309-.95561 1.20125-1.94177 1.67094-2.97103 .23004-.73475.22756-1.57459-.14632-2.26668-.14385-.43635-.16774.21554-.2532.30901l-.0519.15831-.006.0174z"/>
   <path d="m453.58 919.99c-2.4891 7.606 4.9107 3.8514 5.7749 0.9298 1.2053-4.0748-0.1052-10.243-5.7749-0.9298z" stroke="#000" stroke-width=".6"/>
   <path d="m454.23 919.94c-1.9233 5.877 3.7944 2.9759 4.4621 0.71843 0.93132-3.1485-0.0813-7.9146-4.4621-0.71843z" stroke="#000" stroke-width=".6"/>
   <path d="m460.96875,902.40625c-1.45033.38972-2.76505,1.13981-4.15625,1.6875-.44053.18819-.81769.48277-1.1875.78125 1.08093-.0884 2.13854-.32806 3.1875-.59375 1.05888-.11488 2.11525-.53282 3.1875-.3125 .94469.29732 1.60755,1.12818 2.0625,1.96875 .73768,1.82623 1.54525,3.64572 1.90625,5.59375 .26946.83469.002,2.06108.96875,2.5 .88819-.53034.77334-1.74957.46875-2.59375-.44174-1.5361-.84781-3.08383-1.375-4.59375-.57996-1.01938-1.10167-2.11919-2.03125-2.875-.73906-.68652-1.58569-1.30113-2.5625-1.59375-.15821-.007-.31326-.00029-.46875.0312z"/>
   <path d="m466.48971,912.96288c.32749.62499.50695,1.32792.48106,2.07761 .0811,1.21752-.0894,2.48501-.31191,3.74801-.72802,1.83289-1.69002,3.63341-2.46628,5.4602-.43215.95642-1.04355,1.87175-1.63544,2.78851-.48324.76089-.96664,1.52719-1.53984,2.25487-.62536.71333-1.26747,1.42541-1.73743,2.20555-.0436.0839-.56952.57159-.21761.32465 .82468-.52835 1.88802-.59757 2.61246-1.28696 .69164-.69108 1.09545-1.5015 1.60266-2.26764 1.0724-1.70096 2.17008-3.39519 3.2271-5.10028 .48847-.86605.79716-1.76194 1.16518-2.64608 .29134-1.21023.40411-2.41787.26671-3.56327-.0272-.69609-.15797-1.35934-.27677-2.02892-.091-.68624-.33311-1.34251-.90805-1.76792l-.3461-.29848 .0822.0976 .001.003z"/>
   <path d="m453.64073,936.28278 2.70873-1.61666c.59588-.35638 1.21286-.71713 1.83708-1.09432l.0137-.0377c.28844-.12144.57022-.22003.90477-.50944 .45789-.39622.74424-.82617.87574-1.10179 .24816-.52011.20433-.82645.0869-1.06384l.0231-.0128c-.003-.0148-.0222-.0172-.0261-.0318l.007-.0186c-.0462-.16472-.12578-.30001-.25102-.39878l-.72405.68728-.023.0127-.76686.39087-.007.0186c-.14653.35493-.35835.67341-.6482.99647-.4573.4269-.952.8801-1.46468,1.36807l-2.54594,2.41159z"/>
   <path d="m447.21875,913.375c-.67146.64524-1.01977,1.62913-1.40695,2.48404-.58102,1.5597-1.17115,3.11635-1.6149,4.72213-.5326,1.79286-1.10388,3.57782-1.5719,5.38758-.18937.80916.0109,2.59018 1.1875,2.1875 .91393-.63301.39284-1.85839.73286-2.76375 .34443-1.46075.77126-2.90183 1.09159-4.36936 .32002-1.40068.83592-2.74469 1.16043-4.14451 .20573-.9927.74762-1.92599.79637-2.93644-.0389-.18682-.0763-.67032-.375-.56719z"/>
   <path d="m443.36 930.02c0.77799 0.71518 1.3271 1.5677 2.0728 2.3063 0.91414 1.0588 2.0438 2.0347 3.5078 2.6312 0.91299 0.47286 2.1266 1.3272 3.2281 0.71669 0.98926-0.42854 1.8124-1.1861 2.9903-1.2792 0.14268-0.10759 1.1653-0.0238 0.55806-0.0937-1.2285-0.0828-2.2788 0.7139-3.5078 0.5625-1.2801-0.39493-2.1902-1.2455-3.381-1.7598-1.7512-0.92748-3.4279-1.9408-5.0297-3.0214-0.0829 0.0662-0.40796-0.25981-0.43847-0.0625z"/>
   <path d="m456.09 935.72h-0.0312 0.0312z"/>
   <path d="m455.37 919.86c-0.92156 2.816 1.8181 1.4259 2.1381 0.34424 0.44625-1.5086-0.0389-3.7923-2.1381-0.34424z" stroke="#000" stroke-width=".6"/>
   <path d="m473.47049,875.72653c.52829.69263-.21096,2.65616.54013,3.23858 1.19078,1.87129 6.52345,4.85216 7.93334,5.08501 1.41428,1.02533.23228-1.1349 1.70632-.15542 .20733.0728.81936.38172.68897.005 .12199-.12518.13786-.28753.0315-.42891 .51122.0616-.0697-.33107.0938-.42434 .15924.16871.34245.13489.1608-.0563 .0238-.12317.3561.20133.22148-.0292-.61155-.72837-1.68439-1.14009-2.45635-1.76243-2.42931-1.72339-4.94847-3.37716-7.44713-5.04642-.55595-.45174-1.11901-1.02036-1.98578-1.12157l.51297.69581zm12.95943,7.01029-.0623-.005z"/>
   <path d="m519.34375,743.25c-.87815.47012-1.4078,1.36237-1.79912,2.24475-.39281.75775-.84018,1.61209-.64077,2.49089 .27181.80749 1.12259,1.40596.95295,2.35251-.0149.43667-.36091.93154-.0131,1.3181 .70936-.74624 1.0065-1.79778 1.52679-2.67899 .59567-.77524 1.1631-1.58354 1.861-2.2713 .73109-.57484 1.69706-1.55544 1.16363-2.54322-.48874-.68786-1.38336-.86641-2.17642-.91274-.29256-.0481-.58164-.0225-.875,0zm-1.5,9.71875c.0754.21723.0754-.21723 0,0z"/>
   <path d="m481.16 897.91c-4.4985 2.7046-8.9631 5.4659-13.409 8.2563-0.78884 0.5518-1.6934 1.0056-2.3536 1.7032-0.26822 0.56593 0.45257 1.2547 0.93754 0.71603 2.006-1.2192 3.9996-2.4582 5.9839-3.7124l-5.4107 4.1526c1.7962-1.2924 3.641-2.521 5.3573-3.9206l8.4206-6.1251c0.188-0.4997 0.83735-0.85284 1.3283-0.55742-0.2939-0.11382-0.46799-0.84034-0.85468-0.51253z"/>
   <path d="m481.96 900.52c-0.84484 2.3328-4.0674 3.1009-4.5942 3.3769-3.3038 1.1453-3.3166 2.3943-6.4859 4.0724-1.1758 0.69263-2.4046 1.1955-3.5456 2.0126-0.3579 0.28738-0.73463 0.65845-0.81331 1.5612 0.93677 1.4717 1.8796 1.2137 2.6176 0.72043 2.0677-1.2109 4.0682-2.67 6.1095-3.9781 2.5901-1.7134 5.1913-3.3871 7.7862-5.0836 0.37872-1.19-0.86397-2.1498-1.2587-3.1088l0.16862 0.39004 0.0164 0.0368z"/>
   <path d="m513.19 811.1c-5.4325 6.0884-42.975 24.829-43.099 18.165-5.4406 7.193 11.586 3.1405 23.871-5.0958 8.3149-3.1706 8.4596-8.2243 16.85-10.073-4.6151 3.5263 3.8636-1.148 2.7346-2.8846l-0.18075-0.0926-0.1767-0.0201z" stroke="#000"/>
   <path d="m403.33 818.91c-4.787 6.3288 10.194 2.7632 21.003-4.4836 7.3159-2.7897 7.4433-7.2362 14.826-8.8624-14.814 5.594-26.491 15.315-35.829 13.346z"/>
   <path d="m421.65436,918.11499c-.42079.90683.6783,1.86518 1.5625,1.59375 .58638-.15392 1.12741-.53456 1.75-.5-1.07619-.26643-2.02699-.86781-3.09375-1.15625h-.125l-.0937.0625z"/>
   <path d="m423.05388,915.50074c-.0331.0204-.0338.0408-.0625.0625-.0304.0295-.0361.0634-.0625.0937-.18069.17505-.32329.35558-.40625.53125-.10778.22823-.20115.46179-.25.53125l-.0312.0312v.0625c-.37182.91697-1.05736,1.85042-1.3125,3.03125v.0312 .0312c.001-.012-.0433.21382-.0625.34375-.003.0181.002.0524 0,.0625s.001.0499 0,.0625 0,.0621 0,.0625-1e-005,.0311 0,.0312-1e-005,.0937 0,.0937l.5-.125 .375.3125 .0625-.0937c3e-005-5e-005-3e-005-.0312 0-.0312s.0287-.053.0312-.0625c.005-.0189-.001-.0242 0-.0312s.0285-.0478.0312-.0625 0-.0317 0-.0312c.005-.0268-.008-.0492 0-.0937 .002-.009-.002-.0225 0-.0312 .18779-.97723.80685-1.86946 1.28125-2.9375 .004-.01-.004-.0217 0-.0312 .12272-.22495.22209-.45649.3125-.65625 .094-.20758.19108-.37942.21875-.40625l-.625-.78125z"/>
  </g>
  <path d="m853.23 520.98c2.7423-1.016 4.6526-3.2098 5.6743-5.7386-3.1461 1.9905-6.9163 3.437-11.165 3.4056-3.0052-0.44231-6.0149-3.849-4.8892-6.3085-0.90781-2.1555-3.6834-0.75578-3.1246 0.97617-0.35721 3.1503 2.9008 7.1468 6.5911 7.7442 2.4464 0.58283 4.734 0.41951 6.9133-0.079z"/>
  <path d="m725.68968,483.47398c-2.83577.52708-5.65854,1.11642-8.46912,1.7644-2.01987-.37923-4.05238-.73301-5.99896-1.41152l-.35269.11744c-.53247.60827-.0113,1.43911-.3527,2.11728-.1276.39752.53879.77852.82339.4705 2.53614.36963 5.0855.59616 7.64573.70576 2.3449-.41607 4.65904-.96148 6.93998-1.64677v-.35269c.1626-.44115.40791.5797.4705-.11744 .0994-.29962-.14228-.67945.11744-.94101 .19385-.41879-.46381-1.14529-.82339-.70576z"/>
 </g>
</svg>
